<svg width="579" height="549" viewBox="0 0 579 549" fill="none" xmlns="http://www.w3.org/2000/svg">
<g filter="url(#filter0_d_2211_1563)">
<path d="M138.962 254.13C138.962 139.536 231.86 46.6382 346.454 46.6382C461.049 46.6382 553.947 139.536 553.947 254.13V483.26C553.947 497.068 542.754 508.26 528.947 508.26H163.962C150.155 508.26 138.962 497.068 138.962 483.26V254.13Z" fill="#8DBCDD"/>
<path d="M146.462 254.13C146.462 143.678 236.002 54.1382 346.454 54.1382C456.907 54.1382 546.447 143.678 546.447 254.13V483.26C546.447 492.925 538.612 500.76 528.947 500.76H163.962C154.297 500.76 146.462 492.925 146.462 483.26V254.13Z" stroke="#F7F5F5" stroke-width="15"/>
</g>
<path d="M466.33 363.386C468.993 363.386 471.152 361.14 471.152 358.369C471.152 355.598 468.993 353.352 466.33 353.352C463.667 353.352 461.509 355.598 461.509 358.369C461.509 361.14 463.667 363.386 466.33 363.386Z" fill="#FF7B40"/>
<path d="M522.576 311.902H521.322V310.597C521.322 310.153 521.152 309.726 520.85 309.412C520.548 309.097 520.138 308.92 519.71 308.92C519.283 308.92 518.873 309.097 518.571 309.412C518.269 309.726 518.099 310.153 518.099 310.597V311.902H516.845C516.418 311.902 516.008 312.078 515.705 312.393C515.403 312.707 515.233 313.134 515.233 313.579C515.233 314.023 515.403 314.45 515.705 314.764C516.008 315.079 516.418 315.256 516.845 315.256H518.099V316.56C518.099 317.005 518.269 317.431 518.571 317.746C518.873 318.06 519.283 318.237 519.71 318.237C520.138 318.237 520.548 318.06 520.85 317.746C521.152 317.431 521.322 317.005 521.322 316.56V315.256H522.576C523.003 315.256 523.413 315.079 523.715 314.764C524.018 314.45 524.187 314.023 524.187 313.579C524.187 313.134 524.018 312.707 523.715 312.393C523.413 312.078 523.003 311.902 522.576 311.902Z" fill="#FF6584"/>
<path d="M326.195 216.184H324.941V214.88C324.941 214.435 324.771 214.009 324.469 213.694C324.167 213.38 323.757 213.203 323.33 213.203C322.902 213.203 322.492 213.38 322.19 213.694C321.888 214.009 321.718 214.435 321.718 214.88V216.184H320.464C320.037 216.184 319.627 216.361 319.325 216.675C319.022 216.99 318.853 217.416 318.853 217.861C318.853 218.306 319.022 218.732 319.325 219.047C319.627 219.361 320.037 219.538 320.464 219.538H321.718V220.842C321.718 221.287 321.888 221.714 322.19 222.028C322.492 222.343 322.902 222.519 323.33 222.519C323.757 222.519 324.167 222.343 324.469 222.028C324.771 221.714 324.941 221.287 324.941 220.842V219.538H326.195C326.622 219.538 327.032 219.361 327.334 219.047C327.637 218.732 327.806 218.306 327.806 217.861C327.806 217.416 327.637 216.99 327.334 216.675C327.032 216.361 326.622 216.184 326.195 216.184Z" fill="#FF7B40"/>
<path d="M204.365 293.269H203.111V291.964C203.111 291.52 202.941 291.093 202.639 290.779C202.337 290.464 201.927 290.287 201.499 290.287C201.072 290.287 200.662 290.464 200.36 290.779C200.058 291.093 199.888 291.52 199.888 291.964V293.269H198.634C198.207 293.269 197.797 293.445 197.495 293.76C197.192 294.074 197.022 294.501 197.022 294.946C197.022 295.39 197.192 295.817 197.495 296.131C197.797 296.446 198.207 296.623 198.634 296.623H199.888V297.927C199.888 298.372 200.058 298.798 200.36 299.113C200.662 299.427 201.072 299.604 201.499 299.604C201.927 299.604 202.337 299.427 202.639 299.113C202.941 298.798 203.111 298.372 203.111 297.927V296.623H204.365C204.792 296.623 205.202 296.446 205.504 296.131C205.807 295.817 205.976 295.39 205.976 294.946C205.976 294.501 205.807 294.074 205.504 293.76C205.202 293.445 204.792 293.269 204.365 293.269Z" fill="#FF7B40"/>
<path d="M208.497 174.305H207.243V173.001C207.243 172.556 207.074 172.129 206.771 171.815C206.469 171.5 206.059 171.324 205.632 171.324C205.204 171.324 204.794 171.5 204.492 171.815C204.19 172.129 204.02 172.556 204.02 173.001V174.305H202.766C202.339 174.305 201.929 174.482 201.627 174.796C201.325 175.111 201.155 175.537 201.155 175.982C201.155 176.427 201.325 176.853 201.627 177.168C201.929 177.482 202.339 177.659 202.766 177.659H204.02V178.963C204.02 179.408 204.19 179.835 204.492 180.149C204.794 180.463 205.204 180.64 205.632 180.64C206.059 180.64 206.469 180.463 206.771 180.149C207.074 179.835 207.243 179.408 207.243 178.963V177.659H208.497C208.924 177.659 209.334 177.482 209.637 177.168C209.939 176.853 210.109 176.427 210.109 175.982C210.109 175.537 209.939 175.111 209.637 174.796C209.334 174.482 208.924 174.305 208.497 174.305Z" fill="#FF7B40"/>
<path d="M236.825 369.13C259.401 374.337 279.668 349.814 302.773 351.493C304.828 351.639 306.968 352.045 308.586 353.326C310.626 354.944 311.431 357.628 312.136 360.135L316.929 377.335C319.337 385.978 321.768 394.758 321.783 403.73C321.798 412.702 319.099 422.065 312.581 428.269C306.063 434.472 295.35 436.566 287.881 431.589C279.392 443.092 262.576 445.775 248.895 441.711C235.215 437.647 223.774 428.246 212.793 419.074L203.529 411.337C202.233 410.256 200.876 409.09 200.309 407.503C198.008 401.015 209.511 397.618 210.684 390.824C210.6 394.505 216.428 395.157 219.196 392.726C221.964 390.295 223.229 386.445 226.097 384.168C230.192 380.94 237.063 382.358 239.548 386.944C240.178 384.126 240.198 381.205 239.606 378.378C239.013 375.551 237.822 372.884 236.112 370.557" fill="#24223A"/>
<path d="M183.538 144.578C188.392 148.412 188.139 149.34 192.165 153.013C193.069 153.833 186.797 163.235 186.222 164.324C182.771 171.034 180.302 175.757 179.512 177.168C172.196 190.281 173.185 198.256 175.724 200.94C187.634 215.412 201.256 228.387 216.289 239.581C222.884 244.489 229.87 249.113 237.761 251.49C245.651 253.867 254.562 253.79 261.648 249.634C273.556 242.656 276.815 226.874 276.34 213.079C276.079 205.411 274.369 198.992 270.021 192.689C262.353 181.57 253.918 175.052 245.483 164.316C247.085 160.244 248.864 154.248 253.151 155.114C257.438 155.981 263.519 162.192 266.824 165.083C279.186 175.823 289.945 188.28 298.77 202.075C302.42 207.78 305.802 213.946 306.339 220.701C307.389 234.044 298.195 248.737 298.011 262.111C297.934 267.747 298.647 270.546 300.196 275.967C306.542 298.146 310.357 320.972 311.569 344.008C311.687 344.427 311.716 344.866 311.654 345.297C311.592 345.727 311.44 346.14 311.209 346.508C310.978 346.877 310.672 347.193 310.311 347.436C309.951 347.679 309.543 347.844 309.115 347.919L274.921 361.293C262.905 365.994 250.597 370.756 237.699 371.2C236.48 371.239 235.161 371.2 234.195 370.472C233.014 369.567 232.753 367.918 232.584 366.446L225.606 305.322C224.839 298.788 224.073 292.17 221.68 286.059C217.202 274.717 204.265 274.51 194.994 266.589C184.12 257.295 174.995 246.329 163.04 238.469C153.739 232.334 144.046 218.278 144.705 207.159C144.958 202.896 147.052 198.977 149.153 195.258C159.187 177.53 170.583 160.609 183.239 144.647" fill="#F47A45"/>
<path d="M227.309 228.615C227.984 227.964 227.531 225.096 228.973 222.228C231.274 217.673 237.408 212.259 239.195 211.362C246.227 207.911 248.236 212.251 254.846 216.852C256.276 217.931 257.53 219.225 258.565 220.686C264.14 227.964 268.335 237.311 265.965 246.168C265.721 247.348 265.159 248.438 264.339 249.32C263.573 250.026 262.56 250.455 262.039 251.344C261.065 252.97 262.323 254.979 263.519 256.452C266.502 260.109 265.819 263 265.283 264.02C264.324 266.068 263.864 267.601 259.562 267.686C257.883 267.686 256.127 267.739 254.639 266.957C251.196 265.155 251.012 260.416 249.348 256.904C246.02 249.872 234.993 250.815 230.269 245.486C225.262 239.857 223.605 232.189 227.309 228.615Z" fill="#FABEB7"/>
<path d="M256.341 160.957C256.341 160.957 252.76 154.884 251.686 154.163C250.613 153.442 251.372 155.796 250.85 156.341C250.329 156.885 248.55 154.715 247.124 153.396C245.697 152.077 244.417 151.418 245.59 153.887C246.763 156.356 247.016 158.488 243.289 154.991C239.563 151.495 238.688 151.334 240.084 154.47C241.48 157.606 244.424 160.666 241.342 159.071C238.259 157.476 235.652 157.085 237.408 158.756C239.164 160.428 242.676 163.603 242.431 164.416C242.185 165.229 237.922 164.891 238.665 165.597C239.409 166.302 246.893 170.297 248.097 170.696C249.301 171.095 256.763 161.379 256.763 161.379L256.341 160.957Z" fill="#FABEB7"/>
<path d="M185.923 151.763C185.923 151.763 189.059 145.452 190.079 144.654C191.099 143.857 190.508 146.257 191.068 146.771C191.628 147.285 193.284 144.984 194.573 143.573C195.861 142.162 197.134 141.411 196.106 143.949C195.079 146.487 195.01 148.665 198.46 144.884C201.911 141.104 202.824 140.905 201.62 144.118C200.416 147.331 197.732 150.605 200.692 148.811C203.652 147.016 206.228 146.426 204.587 148.22C202.946 150.015 199.68 153.427 199.986 154.224C200.293 155.022 204.518 154.378 203.821 155.137C203.123 155.896 195.953 160.405 194.78 160.896C193.606 161.387 185.47 152.215 185.47 152.215L185.923 151.763Z" fill="#FABEB7"/>
<path d="M253.634 215.993C251.671 214.352 249.8 212.841 247.821 211.2C247.04 210.713 246.19 210.349 245.298 210.119C243.696 209.521 241.664 210.004 240.153 210.817C238.028 211.957 236.089 213.412 234.402 215.134C230.943 218.608 227.416 222.887 227.6 227.787C227.6 228.055 227.362 228.715 227.186 228.554C226.649 227.971 226.419 228.615 226.166 229.16C225.732 229.961 225.471 230.844 225.399 231.752C225.123 234.719 225.2 237.679 226.649 240.286C227.677 242.135 228.06 243.354 229.525 244.887C230.429 245.823 231.38 247.111 232.5 247.763C234.033 248.578 235.638 249.253 237.293 249.78C239.064 250.271 240.598 251.014 242.377 251.505C242.902 251.724 243.45 251.886 244.01 251.988C244.777 251.82 244.777 249.688 244.347 248.921C243.918 248.154 243.266 247.656 243.121 246.866C241.571 246.84 240.057 246.4 238.734 245.593C236.181 244.19 236.311 242.779 236.311 241.506C236.311 240.233 238.481 240.225 238.481 240.225C238.656 239.796 238.701 239.325 238.61 238.871C238.518 238.416 238.295 237.999 237.967 237.672C236.817 236.521 236.05 231.537 239.624 229.106C243.197 226.675 245.873 225.655 247.921 223.355C249.968 221.054 251.878 220.034 252.767 218.37C253.221 217.648 253.516 216.838 253.634 215.993Z" fill="#1C1D1D"/>
<path d="M245.313 211.078C241.724 216.53 235.183 218.577 231.303 223.631C230.536 224.666 229.317 226.299 229.532 227.733C229.808 229.62 231.771 230.67 231.065 232.879C230.95 233.231 231.51 233.385 231.618 233.032C232.139 231.422 232.384 231.437 232.139 230.034C231.962 229.796 231.731 229.604 231.464 229.474C230.217 228.533 230.112 227 231.15 224.873C231.832 223.424 233.404 222.189 234.639 221.2C238.58 218.041 242.967 215.717 245.819 211.384C246.026 211.078 245.528 210.786 245.321 211.093L245.313 211.078Z" fill="#1C1D1D"/>
<path d="M250.368 230.318L258.082 239.758L252.193 240.525C252.193 240.525 250.904 239.857 252.193 239.758C253.481 239.658 256.84 239.259 256.84 239.259L250.368 230.318Z" fill="#1C1D1D"/>
<path d="M256.686 230.624C257.115 231.169 257.636 231.468 257.867 231.292C258.097 231.115 257.928 230.525 257.498 229.996C257.069 229.467 256.548 229.152 256.317 229.329C256.087 229.505 256.264 230.08 256.686 230.624Z" fill="#1C1D1D"/>
<path d="M246.679 236.345C247.108 236.889 247.63 237.189 247.86 237.012C248.09 236.836 247.921 236.245 247.492 235.716C247.062 235.187 246.541 234.873 246.311 235.049C246.081 235.225 246.272 235.801 246.679 236.345Z" fill="#1C1D1D"/>
<path d="M257.682 243.645C257.144 244.305 256.407 244.773 255.581 244.98C254.613 245.075 253.637 244.933 252.736 244.566C251.916 244.297 251.563 245.593 252.376 245.861C253.535 246.317 254.794 246.457 256.026 246.268C257.038 245.975 257.943 245.391 258.625 244.589C258.734 244.459 258.791 244.294 258.784 244.125C258.776 243.956 258.706 243.796 258.586 243.677C258.467 243.557 258.307 243.487 258.138 243.479C257.969 243.472 257.804 243.529 257.675 243.638L257.682 243.645Z" fill="#1C1D1D"/>
<path d="M260.275 224.873C257.974 223.301 253.182 224.428 252.568 227.411C252.369 228.378 253.849 228.784 254.048 227.818C254.462 225.816 257.982 225.165 259.5 226.2C260.321 226.752 261.088 225.433 260.267 224.873H260.275Z" fill="#1C1D1D"/>
<path d="M246.557 230.402C243.926 229.459 239.548 231.698 239.701 234.75C239.747 235.731 241.281 235.739 241.235 234.75C241.135 232.702 244.479 231.284 246.15 231.882C247.078 232.212 247.485 230.732 246.557 230.402Z" fill="#1C1D1D"/>
<path d="M265.021 233.86C265.021 234.238 265.108 234.61 265.274 234.949C265.42 235.264 265.888 234.987 265.734 234.681C265.615 234.427 265.554 234.149 265.558 233.868C265.558 233.797 265.53 233.728 265.479 233.678C265.429 233.628 265.361 233.599 265.289 233.599C265.218 233.599 265.15 233.628 265.1 233.678C265.049 233.728 265.021 233.797 265.021 233.868V233.86Z" fill="#1C1D1D"/>
<path d="M263.619 234.505C263.62 234.88 263.729 235.248 263.933 235.563C264.117 235.854 264.585 235.563 264.393 235.295C264.24 235.068 264.154 234.802 264.148 234.528C264.148 234.457 264.119 234.388 264.069 234.338C264.019 234.288 263.95 234.259 263.879 234.259C263.808 234.259 263.74 234.288 263.689 234.338C263.639 234.388 263.611 234.457 263.611 234.528L263.619 234.505Z" fill="#1C1D1D"/>
<path d="M245.767 244.098C246.044 244.225 246.287 244.414 246.48 244.65C246.702 244.918 247.078 244.535 246.856 244.274C246.631 244.003 246.348 243.785 246.027 243.638C245.713 243.492 245.445 243.952 245.759 244.098H245.767Z" fill="#1C1D1D"/>
<path d="M246.955 243.108C247.212 243.226 247.429 243.419 247.576 243.66C247.76 243.952 248.22 243.66 248.036 243.392C247.846 243.062 247.563 242.796 247.223 242.625C246.916 242.472 246.64 242.94 246.955 243.085V243.108Z" fill="#1C1D1D"/>
<path d="M282.276 386.069C284.923 396.056 286.56 406.283 287.16 416.597C287.299 419.061 287.378 421.525 287.398 423.989C287.398 426.397 287.513 428.928 286.769 431.251C285.351 435.668 280.895 437.769 276.969 439.533C276.517 439.733 276.908 440.4 277.353 440.193C280.872 438.613 284.783 436.788 286.739 433.291C289.039 429.135 288.219 423.384 288.027 418.852C287.546 407.711 285.862 396.656 283.004 385.878C282.977 385.776 282.91 385.689 282.819 385.637C282.727 385.584 282.619 385.57 282.517 385.598C282.416 385.625 282.329 385.692 282.276 385.783C282.224 385.875 282.21 385.983 282.237 386.085L282.276 386.069Z" fill="#1C1D1D"/>
<path d="M311.408 358.716C311.51 358.716 311.607 358.676 311.679 358.604C311.751 358.532 311.791 358.434 311.791 358.333C311.791 358.231 311.751 358.134 311.679 358.062C311.607 357.99 311.51 357.949 311.408 357.949C311.306 357.949 311.209 357.99 311.137 358.062C311.065 358.134 311.024 358.231 311.024 358.333C311.024 358.434 311.065 358.532 311.137 358.604C311.209 358.676 311.306 358.716 311.408 358.716Z" fill="#1C1D1D"/>
<path d="M310.955 359.583C315.503 372.688 320.157 386.07 320.556 400.072C320.878 410.762 318.946 427.548 306.684 431.282C306.216 431.428 306.416 432.164 306.891 432.049C318.57 428.499 321.216 413.453 321.354 403.009C321.553 387.925 316.576 373.471 311.699 359.407C311.538 358.947 310.794 359.146 310.932 359.614L310.955 359.583Z" fill="#1C1D1D"/>
<path d="M240.015 381.86C240.153 387.626 239.839 393.638 240.782 399.344C241.725 405.049 244.225 410.164 246.663 415.271C246.878 415.716 247.538 415.325 247.323 414.887C244.907 409.842 242.454 404.704 241.518 399.144C240.583 393.585 240.897 387.565 240.751 381.868C240.751 381.766 240.711 381.668 240.639 381.596C240.567 381.524 240.469 381.484 240.368 381.484C240.266 381.484 240.169 381.524 240.097 381.596C240.025 381.668 239.984 381.766 239.984 381.868L240.015 381.86Z" fill="#1C1D1D"/>
<path d="M213.79 396.038C223.156 402.032 232.888 407.433 242.929 412.211C243.374 412.425 243.765 411.758 243.313 411.551C233.272 406.774 223.539 401.372 214.173 395.379C213.759 395.11 213.406 395.778 213.79 396.038Z" fill="#1C1D1D"/>
<path d="M201.926 409.765C210.193 416.855 218.769 423.563 227.654 429.887C235.475 435.438 244.095 442.355 254.156 442.493C254.257 442.493 254.355 442.453 254.427 442.381C254.499 442.309 254.539 442.212 254.539 442.11C254.539 442.008 254.499 441.911 254.427 441.839C254.355 441.767 254.257 441.727 254.156 441.727C244.056 441.596 235.299 434.396 227.454 428.805C218.835 422.671 210.507 416.145 202.471 409.228C202.095 408.906 201.551 409.45 201.926 409.772V409.765Z" fill="#1C1D1D"/>
<path d="M208.981 390.831C206.146 388.699 203.954 385.825 202.647 382.527C202.218 381.43 201.804 380.188 200.769 379.613C200.184 379.333 199.536 379.211 198.89 379.26C196.376 379.396 194 380.448 192.208 382.217C190.417 383.986 189.335 386.349 189.166 388.861C189.128 390.088 189.297 391.399 188.699 392.48C188.241 393.158 187.667 393.75 187.004 394.228C184.713 396.289 183.095 398.991 182.362 401.984C181.629 404.977 181.814 408.121 182.894 411.007C183.442 412.563 184.427 413.929 185.731 414.941C186.387 415.435 187.162 415.749 187.977 415.851C188.792 415.953 189.62 415.84 190.378 415.523C192.188 414.649 192.978 412.533 193.599 410.616L195.899 403.568C196.027 403.033 196.316 402.55 196.727 402.185C197.139 401.82 197.653 401.591 198.2 401.529C198.583 401.529 199.128 402.472 199.603 403.254C200.078 404.036 199.94 405.018 200.37 404.565C202.456 402.51 207.164 395.831 209.257 393.776C210.155 392.894 210.791 392.242 209.672 391.69" fill="white"/>
<path d="M227.117 383.071C226.088 381.543 225.227 379.908 224.549 378.194C223.912 376.4 223.575 374.299 222.033 373.179C220.492 372.06 218.268 372.412 216.712 373.494C215.155 374.575 214.112 376.231 213.115 377.842L210.585 381.936C209.258 384.076 207.878 386.453 208.223 388.953C208.637 392.02 211.781 394.267 214.886 394.321C217.992 394.375 220.921 392.649 223.015 390.349C224.795 388.491 226.238 386.337 227.278 383.984" fill="white"/>
<path d="M201.367 404.634C204.71 400.8 207.501 396.575 210.315 392.365C210.591 391.959 209.932 391.598 209.656 391.982C206.857 396.107 204.127 400.31 200.83 404.067C200.508 404.435 201.044 404.98 201.374 404.611L201.367 404.634Z" fill="#1C1D1D"/>
<path d="M208.744 390.164C205.262 387.726 203.552 383.769 201.996 379.958C201.812 379.505 201.068 379.705 201.229 380.165C202.87 384.191 204.656 388.255 208.33 390.831C208.736 391.115 209.096 390.448 208.713 390.172L208.744 390.164Z" fill="#1C1D1D"/>
<path d="M195.7 379.467C192.057 381.277 186.774 386.629 188.722 391.176C188.913 391.629 189.573 391.238 189.381 390.793C188.438 388.592 190.064 385.724 191.367 383.999C192.618 382.37 194.233 381.057 196.083 380.165C196.528 379.942 196.137 379.283 195.7 379.505V379.467Z" fill="#1C1D1D"/>
<path d="M187.127 393.308C184.426 396.07 182.676 399.621 182.131 403.445C181.586 407.269 182.275 411.167 184.098 414.573C184.328 415.01 184.987 414.619 184.757 414.189C183.015 410.931 182.357 407.202 182.88 403.545C183.402 399.888 185.078 396.492 187.664 393.853C188.009 393.5 187.464 392.956 187.119 393.308H187.127Z" fill="#1C1D1D"/>
<path d="M218.138 372.006C215.869 373.429 213.98 375.382 212.632 377.696C211.74 379.074 210.929 380.503 210.201 381.975C209.434 383.508 208.882 385.218 207.448 386.277C207.057 386.568 207.448 387.235 207.831 386.936C209.909 385.402 210.63 382.665 211.842 380.495C213.521 377.489 215.469 374.421 218.529 372.673C218.605 372.617 218.659 372.535 218.678 372.442C218.698 372.349 218.682 372.252 218.635 372.17C218.587 372.088 218.51 372.027 218.42 371.998C218.33 371.969 218.232 371.974 218.145 372.013L218.138 372.006Z" fill="#1C1D1D"/>
<path d="M222.386 374.153C224.349 376.936 224.272 380.609 226.511 383.255C226.833 383.631 227.37 383.086 227.056 382.711C224.878 380.149 224.978 376.491 223.053 373.769C222.769 373.37 222.102 373.769 222.393 374.153H222.386Z" fill="#1C1D1D"/>
<path d="M214.472 394.827C220.737 394.06 224.855 389.213 227.423 383.815C227.63 383.37 226.971 382.979 226.764 383.431C224.333 388.546 220.453 393.339 214.495 394.067C214.011 394.129 214.004 394.896 214.495 394.834L214.472 394.827Z" fill="#1C1D1D"/>
<path d="M181.076 185.688C177.951 193.151 175.907 201.021 175.003 209.061C174.949 209.552 175.716 209.544 175.77 209.061C176.676 201.091 178.714 193.291 181.82 185.895C182.012 185.443 181.268 185.243 181.053 185.688H181.076Z" fill="#1C1D1D"/>
<path d="M270.328 196.147C274.768 201.323 277.437 207.596 280.021 213.83C280.205 214.283 280.949 214.084 280.788 213.623C278.15 207.259 275.42 200.879 270.896 195.603C270.574 195.227 270.037 195.771 270.351 196.147H270.328Z" fill="#1C1D1D"/>
<path d="M342.588 253.154C342.689 253.154 342.787 253.113 342.859 253.041C342.931 252.97 342.971 252.872 342.971 252.77C342.971 252.669 342.931 252.571 342.859 252.499C342.787 252.427 342.689 252.387 342.588 252.387C342.486 252.387 342.388 252.427 342.316 252.499C342.245 252.571 342.204 252.669 342.204 252.77C342.204 252.872 342.245 252.97 342.316 253.041C342.388 253.113 342.486 253.154 342.588 253.154Z" fill="#1C1D1D"/>
<path d="M255.168 252.755C257.279 252.907 259.391 252.463 261.263 251.475C263.135 250.487 264.692 248.994 265.758 247.165C265.797 247.078 265.803 246.98 265.774 246.89C265.745 246.8 265.683 246.723 265.601 246.675C265.519 246.628 265.422 246.612 265.33 246.632C265.237 246.651 265.154 246.705 265.098 246.781C264.101 248.494 262.641 249.892 260.886 250.814C259.131 251.736 257.152 252.146 255.176 251.996C254.685 251.996 254.685 252.763 255.176 252.763L255.168 252.755Z" fill="#1C1D1D"/>
<path d="M258.534 220.686C258.47 218.573 257.929 216.501 256.954 214.625C255.978 212.749 254.591 211.117 252.898 209.851C252.055 209.198 251.094 208.713 250.068 208.424C247.668 207.819 245.183 208.762 242.891 209.682" fill="#1C1D1D"/>
<path d="M400.449 337.517L363.587 451.775L467.547 470.946C467.547 470.946 470.499 434.905 474.18 398.863C477.861 362.822 476.987 356.856 476.987 356.856L404.95 334.311L400.449 337.517Z" fill="#24223A"/>
<path d="M517.66 251.631C517.461 251.8 515.175 254.538 514.976 254.699C505.774 262.137 500.053 266.201 492.868 278.149C489.095 284.414 489.325 284.789 488.581 291.323C486.281 311.698 486.687 330.569 484.364 350.944C484.195 352.424 484.011 356.941 482.83 357.846C481.864 358.613 477.715 357.248 476.496 357.209C463.598 356.764 449.941 353.804 437.204 351.711C424.466 349.618 406.016 346.474 392.858 343.145C392.091 342.946 394.061 336.29 400.395 314.136C401.929 308.715 415.732 257.199 415.678 251.562C415.494 238.181 404.406 224.002 405.457 210.667C405.986 203.919 405.388 198.482 409.038 192.777C417.849 178.974 415.096 178.445 427.442 167.724C430.747 164.856 443.093 152.227 447.379 151.368C451.666 150.509 457.026 157.502 458.629 161.59C450.194 172.325 451.85 167.594 444.182 178.713C439.834 185.016 438.124 191.45 437.863 199.103C437.395 212.906 440.647 228.68 452.556 235.658C459.649 239.814 468.583 239.899 476.443 237.514C484.303 235.129 491.135 233.342 497.73 228.435C498.366 227.959 499.041 226.817 499.647 226.518C500.13 226.28 501.288 224.738 501.756 224.6C502.223 224.462 535.167 185.062 537.222 187.409C539.691 190.231 548.724 188.022 550.258 192.202C552.834 199.349 517.721 251.578 517.66 251.631Z" fill="#F47A45"/>
<path d="M448.997 150.555C448.997 150.555 452.578 144.482 453.652 143.761C454.725 143.04 453.966 145.394 454.487 145.939C455.009 146.483 456.788 144.313 458.214 142.994C459.641 141.675 460.921 141.016 459.748 143.485C458.575 145.954 458.322 148.086 462.049 144.589C465.775 141.092 466.649 140.931 465.254 144.068C463.858 147.204 460.913 150.264 463.996 148.669C467.079 147.074 469.686 146.682 467.93 148.354C466.174 150.026 462.662 153.201 462.907 154.013C463.153 154.826 467.416 154.489 466.672 155.194C465.929 155.9 458.444 159.895 457.24 160.294C456.037 160.693 448.575 150.977 448.575 150.977L448.997 150.555Z" fill="#FABEB7"/>
<path d="M549.951 190.783C549.951 190.783 553.785 184.894 553.985 183.606C554.184 182.317 552.382 184.043 551.684 183.82C550.986 183.598 552.106 181.006 552.674 179.173C553.241 177.341 553.249 175.876 551.562 178.023C549.875 180.17 548.042 181.343 549.56 176.489C551.078 171.635 550.787 170.715 548.609 173.384C546.431 176.052 544.967 180.017 545.028 176.551C545.09 173.085 544.261 170.569 543.571 172.885C542.881 175.201 541.547 179.787 540.718 179.894C539.89 180.001 538.295 176.06 537.996 177.041C537.697 178.023 537.421 186.497 537.59 187.777C537.759 189.058 549.783 191.435 549.783 191.435L549.951 190.783Z" fill="#FABEB7"/>
<path d="M521.831 201.051C517.506 204.655 513.91 208.972 510.328 213.282L498.695 227.223C498.381 227.598 498.918 228.143 499.24 227.767L510.873 213.826C514.469 209.516 518.066 205.199 522.375 201.595C522.751 201.281 522.207 200.736 521.831 201.051Z" fill="#1C1D1D"/>
<path d="M446.635 174.526C437.939 183.989 436.996 197.217 437.318 209.448C437.318 209.549 437.358 209.647 437.43 209.719C437.502 209.791 437.6 209.831 437.701 209.831C437.803 209.831 437.9 209.791 437.972 209.719C438.044 209.647 438.085 209.549 438.085 209.448C437.77 197.431 438.629 184.372 447.179 175.063C447.509 174.702 446.972 174.158 446.635 174.518V174.526Z" fill="#1C1D1D"/>
<path d="M480.545 173.276C480.545 173.276 487.04 178.644 492.814 189.924C496.294 196.695 499.285 203.706 501.763 210.905L495.912 214.049L501.073 223.749L491.572 232.989C491.609 238.333 492.696 243.616 494.77 248.541C498.136 256.086 504.394 277.857 504.394 277.857C504.394 277.857 506.832 289.559 491.618 298.5C476.404 307.441 458.383 321.229 445.454 318.89C432.526 316.551 418.569 306.483 415.602 302.787C412.634 299.091 403.601 273.831 404.329 267.144C405.058 260.457 410.303 252.881 419.919 242.69C429.535 232.499 439.65 222.146 439.65 222.146C439.65 222.146 437.801 203.183 438.53 199.141C439.258 195.1 440.991 185.522 450.968 177.67C460.945 169.818 468.72 168.092 474.134 170.354C479.548 172.616 480.545 173.276 480.545 173.276Z" fill="#24223A"/>
<path d="M475.914 181.282C475.914 181.282 479.18 183.544 479.556 189.794C479.594 190.438 479.61 191.182 479.617 191.987C479.617 198.996 478.329 211.204 477.67 213.182C476.903 215.391 471.389 227.591 464.472 226.985C457.556 226.379 451.682 220.996 449.903 218.673C448.124 216.349 444.688 208.704 445.018 202.247C445.347 195.79 447.939 186.067 452.517 182.041C457.095 178.015 463.598 174.373 469.296 177.049C474.993 179.725 475.914 181.282 475.914 181.282Z" fill="#FABEB7"/>
<path d="M470.193 184.257C465.148 181.673 461.758 180.063 457.157 181.405C452.556 182.747 452.556 182.072 452.556 182.072L459.051 177.563C459.051 177.563 464.051 175.791 465.991 176.144C467.931 176.497 474.066 178.606 475.232 180.492C476.397 182.379 477.854 182.639 478.636 184.786C479.155 186.413 479.469 188.098 479.572 189.802L470.193 184.257Z" fill="#F8F7F8"/>
<path d="M463.913 195.514L458.545 209.21L465.446 207.899C465.446 207.899 466.666 206.656 465.186 206.986C463.706 207.316 459.818 208.144 459.818 208.144L463.913 195.514Z" fill="#1C1D1D"/>
<path d="M456.628 197.102C456.917 196.319 456.896 195.591 456.582 195.475C456.268 195.359 455.78 195.9 455.491 196.682C455.202 197.465 455.223 198.194 455.537 198.309C455.85 198.425 456.339 197.885 456.628 197.102Z" fill="#1C1D1D"/>
<path d="M471.081 200.163C471.37 199.381 471.35 198.652 471.036 198.536C470.722 198.421 470.234 198.961 469.945 199.744C469.656 200.527 469.676 201.255 469.99 201.371C470.304 201.487 470.793 200.946 471.081 200.163Z" fill="#1C1D1D"/>
<path d="M460.293 218.006C461.567 218.637 463.005 218.859 464.41 218.642C465.781 218.253 467.038 217.54 468.076 216.564C468.735 216.004 467.784 215.03 467.125 215.613C466.26 216.433 465.207 217.028 464.058 217.346C462.885 217.477 461.7 217.255 460.653 216.71C459.886 216.395 459.503 217.691 460.293 218.006Z" fill="#1C1D1D"/>
<path d="M478.029 193.866C477.347 190.714 472.416 187.846 469.594 189.947C468.827 190.53 469.594 191.857 470.361 191.274C472.362 189.794 476.066 192.041 476.557 194.28C476.764 195.246 478.244 194.84 478.037 193.873L478.029 193.866Z" fill="#1C1D1D"/>
<path d="M461.834 187.739C460.369 184.871 454.932 183.291 452.678 186.036C452.057 186.803 453.138 187.884 453.759 187.118C455.362 185.155 459.472 186.489 460.5 188.506C460.952 189.387 462.271 188.613 461.826 187.739H461.834Z" fill="#1C1D1D"/>
<path d="M474.18 218.029C482.324 218.029 482.331 205.376 474.18 205.376C466.029 205.376 466.029 218.029 474.18 218.029Z" fill="#F2675E"/>
<path d="M447.709 214.685C455.853 214.685 455.861 202.032 447.709 202.032C439.558 202.032 439.558 214.685 447.709 214.685Z" fill="#F2675E"/>
<path d="M475.529 210.851C475.231 211.175 475.011 211.564 474.885 211.986C474.874 212.051 474.887 212.119 474.922 212.175C474.957 212.231 475.012 212.273 475.076 212.291C475.14 212.309 475.209 212.303 475.269 212.273C475.328 212.244 475.375 212.193 475.399 212.132C475.498 211.798 475.671 211.491 475.905 211.234C476.135 210.981 475.76 210.598 475.529 210.859V210.851Z" fill="#1C1D1D"/>
<path d="M473.805 210.284C473.508 210.61 473.311 211.014 473.237 211.449C473.184 211.787 473.698 211.932 473.751 211.595C473.801 211.25 473.95 210.928 474.181 210.667C474.411 210.406 474.027 210.031 473.805 210.291V210.284Z" fill="#1C1D1D"/>
<path d="M445.823 207.538C445.963 207.881 446.023 208.25 445.999 208.62C445.999 208.965 446.513 208.965 446.536 208.62C446.565 208.201 446.499 207.782 446.344 207.393C446.222 207.078 445.7 207.216 445.83 207.538H445.823Z" fill="#1C1D1D"/>
<path d="M447.633 207.623C447.764 207.943 447.798 208.295 447.733 208.635C447.671 208.972 448.185 209.118 448.247 208.781C448.339 208.348 448.304 207.898 448.147 207.485C448.024 207.163 447.503 207.301 447.633 207.63V207.623Z" fill="#1C1D1D"/>
<path d="M478.766 231.364C473.841 240.14 466.348 247.199 457.295 251.593C456.827 251.823 457.233 252.513 457.701 252.291C466.866 247.823 474.448 240.664 479.433 231.77C479.473 231.679 479.478 231.576 479.447 231.481C479.417 231.386 479.352 231.306 479.265 231.256C479.179 231.206 479.078 231.189 478.98 231.209C478.882 231.229 478.795 231.284 478.735 231.364H478.766Z" fill="#1C1D1D"/>
<path d="M487.684 246.44C484.193 250.99 479.975 254.934 475.2 258.111C470.415 261.263 463.966 265.013 458.061 264.506C457.547 264.46 457.547 265.273 458.061 265.312C463.743 265.802 469.924 262.375 474.602 259.445C479.848 256.132 484.469 251.919 488.251 247C488.566 246.593 487.998 246.018 487.684 246.432V246.44Z" fill="#1C1D1D"/>
<path d="M442.48 214.624C442.559 214.596 442.628 214.544 442.676 214.476C442.725 214.407 442.751 214.325 442.751 214.241C442.751 214.156 442.725 214.074 442.676 214.006C442.628 213.937 442.559 213.885 442.48 213.857C442.4 213.885 442.331 213.937 442.283 214.006C442.234 214.074 442.208 214.156 442.208 214.241C442.208 214.325 442.234 214.407 442.283 214.476C442.331 214.544 442.4 214.596 442.48 214.624Z" fill="#1C1D1D"/>
<path d="M473.567 220.636C470.416 223.949 467.11 227.108 462.157 226.617C457.556 226.157 454.021 223.029 451.007 219.716C450.654 219.332 450.087 219.908 450.439 220.283C453.714 223.849 457.632 227.254 462.709 227.484C467.586 227.706 470.983 224.486 474.127 221.173C474.487 220.797 473.912 220.23 473.56 220.605L473.567 220.636Z" fill="#1C1D1D"/>
<path d="M490.936 197.125C490.579 205.543 488.491 213.797 484.801 221.372C484.578 221.84 485.269 222.246 485.499 221.778C489.24 214.074 491.354 205.682 491.71 197.125C491.71 196.603 490.943 196.611 490.905 197.125H490.936Z" fill="#1C1D1D"/>
<path d="M479.088 187.57C479.986 193.719 479.945 199.968 478.965 206.104C478.889 206.611 479.663 206.833 479.732 206.319C480.734 200.041 480.775 193.646 479.855 187.355C479.778 186.842 479.004 187.064 479.088 187.57Z" fill="#1C1D1D"/>
<path d="M450.952 182.885C447.505 188.412 445.292 194.62 444.465 201.082C444.396 201.595 445.232 201.588 445.27 201.082C446.091 194.761 448.268 188.693 451.65 183.291C451.926 182.846 451.228 182.447 450.952 182.885Z" fill="#1C1D1D"/>
<path d="M442.103 226.464C444.311 229.976 445.377 235.275 450.239 235.888C450.753 235.949 450.745 235.121 450.239 235.121C445.837 234.562 444.779 229.247 442.801 226.096C442.525 225.659 441.827 226.096 442.103 226.502V226.464Z" fill="#1C1D1D"/>
<path d="M452.885 252.084C449.127 253.763 444.189 251.056 440.884 249.384C437.821 247.82 434.914 245.966 432.203 243.848C431.797 243.533 431.222 244.101 431.636 244.415C435.423 247.385 439.591 249.835 444.028 251.7C447.095 252.965 450.163 254.192 453.284 252.774C453.759 252.559 453.345 251.869 452.877 252.076L452.885 252.084Z" fill="#1C1D1D"/>
<path d="M452.233 263.556C446.97 263.361 441.827 261.924 437.226 259.361C434.535 257.827 431.904 254.131 428.615 254.269C428.101 254.269 428.093 255.097 428.615 255.074C430.639 254.99 433.561 257.988 435.256 259.093C436.826 260.113 438.484 260.993 440.209 261.723C444.03 263.306 448.101 264.197 452.233 264.353C452.755 264.353 452.747 263.586 452.233 263.548V263.556Z" fill="#1C1D1D"/>
<path d="M488.811 267.167C486.478 272.655 483.052 277.609 478.74 281.728C474.429 285.847 469.324 289.045 463.736 291.126C458.148 293.207 452.195 294.128 446.24 293.832C440.285 293.536 434.452 292.03 429.098 289.405C428.638 289.175 428.224 289.873 428.692 290.103C434.136 292.783 440.069 294.325 446.129 294.638C452.189 294.95 458.249 294.025 463.94 291.919C469.631 289.813 474.834 286.571 479.231 282.389C483.628 278.208 487.128 273.175 489.517 267.597C489.716 267.129 489.026 266.715 488.819 267.19L488.811 267.167Z" fill="#1C1D1D"/>
<path d="M438.116 223.627C427.232 234.633 416.823 246.08 406.89 257.966C406.56 258.364 407.128 258.932 407.458 258.533C417.385 246.652 427.794 235.206 438.683 224.194C439.051 223.826 438.476 223.259 438.116 223.627Z" fill="#1C1D1D"/>
<path d="M453.138 175.692C447.053 179.69 442.38 185.501 439.783 192.303C437.186 199.105 436.796 206.552 438.668 213.589C438.711 213.672 438.781 213.738 438.867 213.775C438.952 213.813 439.048 213.819 439.139 213.794C439.229 213.769 439.308 213.713 439.361 213.637C439.415 213.56 439.441 213.467 439.435 213.374C437.607 206.509 437.985 199.243 440.516 192.606C443.047 185.968 447.602 180.295 453.537 176.389C453.966 176.106 453.537 175.408 453.13 175.692H453.138Z" fill="#1C1D1D"/>
<path d="M490.768 227.2C490.906 232.184 491.235 237.153 491.757 242.107C491.811 242.621 492.616 242.621 492.562 242.107C492.051 237.148 491.721 232.179 491.573 227.2C491.545 227.12 491.493 227.052 491.424 227.003C491.356 226.954 491.274 226.928 491.189 226.928C491.105 226.928 491.023 226.954 490.954 227.003C490.886 227.052 490.834 227.12 490.806 227.2H490.768Z" fill="#1C1D1D"/>
<path d="M495.161 197.761C495.515 202.786 495.289 207.834 494.486 212.807C494.402 213.313 495.184 213.535 495.253 213.021C496.073 207.981 496.31 202.863 495.959 197.769C495.959 197.255 495.115 197.248 495.154 197.769L495.161 197.761Z" fill="#1C1D1D"/>
<path d="M500.766 222.86C499.388 220.353 497.87 217.926 496.219 215.59C495.92 215.168 495.222 215.59 495.521 215.997C497.172 218.333 498.69 220.76 500.068 223.266C500.322 223.719 501.012 223.312 500.766 222.86Z" fill="#1C1D1D"/>
<path d="M501.779 208.995L497.661 199.648C497.454 199.172 496.756 199.586 496.963 200.054L501.081 209.402C501.288 209.877 501.986 209.463 501.779 208.995Z" fill="#1C1D1D"/>
<path d="M497.952 259.928C500.758 266.569 502.338 272.903 503.834 279.927C503.941 280.433 504.715 280.219 504.6 279.713C503.067 272.673 501.441 266.155 498.642 259.522C498.443 259.046 497.745 259.453 497.944 259.928H497.952Z" fill="#1C1D1D"/>
<path d="M501.932 289.344C493.855 296.993 484.762 303.491 474.909 308.653C474.449 308.891 474.855 309.589 475.315 309.351C485.227 304.152 494.375 297.611 502.5 289.912C502.875 289.551 502.308 288.984 501.932 289.344Z" fill="#1C1D1D"/>
<path d="M409.528 462.158C409.645 465.499 410.557 468.764 412.189 471.682C412.749 472.702 413.416 473.814 413.293 474.826C413.208 475.34 412.96 475.813 412.588 476.176C409.942 479.051 404.444 478.576 400.794 475.156C399.896 474.32 399.053 473.3 397.987 472.894C397.304 472.691 396.589 472.613 395.878 472.664C390.648 472.579 384.751 468.653 381.861 463.331C381.057 461.992 380.596 460.475 380.519 458.914C380.519 457.465 381.224 456.146 382.482 455.778C384.015 455.326 385.932 456.346 387.612 457.312L393.785 460.908C395.05 461.675 396.085 461.407 396.4 461C396.576 460.755 396.208 459.796 395.894 458.968C395.579 458.14 394.812 457.534 395.372 457.58C397.895 457.795 405.057 459.704 407.58 459.919C408.661 460.011 409.459 460.088 409.275 461.138" fill="white"/>
<path d="M446.398 468.776C446.515 472.117 447.427 475.382 449.059 478.3C449.619 479.32 450.286 480.432 450.163 481.444C450.078 481.957 449.83 482.43 449.458 482.794C446.812 485.669 441.314 485.194 437.664 481.774C436.767 480.938 435.923 479.918 434.857 479.511C434.174 479.309 433.459 479.231 432.748 479.281C427.518 479.197 421.622 475.271 418.731 469.949C417.927 468.609 417.466 467.092 417.389 465.532C417.389 464.083 418.094 462.764 419.352 462.396C420.885 461.943 422.803 462.963 424.482 463.929L430.655 467.526C431.92 468.293 432.955 468.024 433.27 467.618C433.446 467.372 433.078 466.414 432.764 465.586C432.449 464.758 431.682 464.152 432.242 464.198C434.765 464.413 441.927 466.322 444.45 466.537C445.531 466.629 446.329 466.705 446.145 467.756" fill="white"/>
<path d="M380.503 457.174C379.315 465.732 387.351 470.808 394.583 472.633C395.822 472.844 397.015 473.267 398.11 473.883C398.984 474.458 399.644 475.286 400.48 475.908C402.094 477.015 403.951 477.717 405.893 477.955C409.122 478.461 412.925 478.016 414.16 474.512C414.328 474.044 413.585 473.845 413.393 474.305C411.859 478.607 405.64 477.702 402.381 476.161C400.848 475.394 399.897 474.121 398.547 473.208C397.375 472.559 396.102 472.113 394.782 471.889C388.041 470.187 380.105 465.517 381.24 457.373C381.309 456.89 380.565 456.683 380.473 457.166L380.503 457.174Z" fill="#1C1D1D"/>
<path d="M408.945 460.341C409.161 464.724 410.412 468.995 412.595 472.802C412.651 472.879 412.734 472.932 412.826 472.951C412.919 472.971 413.016 472.955 413.098 472.908C413.18 472.86 413.242 472.784 413.271 472.693C413.299 472.603 413.294 472.505 413.255 472.418C411.135 468.729 409.921 464.59 409.712 460.341C409.712 459.85 408.945 459.85 408.945 460.341Z" fill="#1C1D1D"/>
<path d="M417.565 463.546C416.944 467.319 418.386 470.9 420.924 473.676C423.462 476.452 427.312 479.634 431.123 479.366C433.853 479.174 435.624 480.961 437.74 482.433C439.279 483.619 441.043 484.48 442.924 484.964C445.685 485.524 448.875 484.627 450.117 481.897C450.324 481.452 449.665 481.061 449.458 481.513C447.778 485.163 443.2 484.688 440.256 483.085C437.848 481.782 435.54 478.967 432.756 478.538C432.113 478.509 431.47 478.535 430.831 478.615C429.616 478.62 428.422 478.291 427.38 477.664C425.749 476.761 424.223 475.678 422.833 474.435C419.766 471.713 417.642 467.925 418.332 463.738C418.409 463.255 417.673 463.048 417.565 463.531V463.546Z" fill="#1C1D1D"/>
<path d="M445.83 466.974C446.201 471.238 447.457 475.377 449.519 479.128C449.756 479.558 450.416 479.174 450.178 478.745C448.18 475.115 446.96 471.109 446.597 466.982C446.551 466.491 445.784 466.491 445.83 466.982V466.974Z" fill="#1C1D1D"/>
<path d="M495.335 80.0834H404.278C400.435 80.0791 396.752 78.5519 394.035 75.8371C391.318 73.1223 389.79 69.4416 389.786 65.6024V22.5954C389.79 18.7562 391.318 15.0755 394.035 12.3607C396.752 9.64593 400.435 8.11878 404.277 8.11438H495.335C499.177 8.11878 502.861 9.64593 505.578 12.3607C508.294 15.0756 509.822 18.7564 509.827 22.5956V65.6021C509.822 69.4414 508.294 73.1222 505.578 75.837C502.861 78.5519 499.177 80.0791 495.335 80.0834Z" stroke="#F2F2F2"/>
<path d="M241.716 92.0752H150.658C146.8 92.0708 143.102 90.5375 140.374 87.8116C137.646 85.0858 136.112 81.39 136.107 77.5351V34.5279C136.112 30.673 137.646 26.9772 140.374 24.2513C143.102 21.5255 146.8 19.9922 150.658 19.9878H241.716C245.574 19.9922 249.272 21.5255 252 24.2513C254.728 26.9772 256.262 30.673 256.267 34.5279V77.5351C256.262 81.39 254.728 85.0858 252 87.8116C249.272 90.5375 245.574 92.0708 241.716 92.0752Z" fill="#FF7B40"/>
<path d="M196.187 80.7055C209.824 80.7055 220.878 69.6585 220.878 56.0314C220.878 42.4043 209.824 31.3573 196.187 31.3573C182.55 31.3573 171.495 42.4043 171.495 56.0314C171.495 69.6585 182.55 80.7055 196.187 80.7055Z" fill="white"/>
<path d="M193.74 65.4441C193.184 65.4452 192.643 65.2656 192.199 64.9326L192.171 64.912L186.369 60.4724C186.099 60.2668 185.874 60.0102 185.704 59.7172C185.534 59.4243 185.424 59.1008 185.379 58.7652C185.334 58.4297 185.356 58.0886 185.444 57.7615C185.531 57.4344 185.682 57.1278 185.888 56.8591C186.094 56.5904 186.351 56.3649 186.644 56.1955C186.938 56.0261 187.262 55.9161 187.597 55.8718C187.933 55.8276 188.275 55.8499 188.602 55.9375C188.929 56.0252 189.236 56.1764 189.504 56.3825L193.263 59.2625L202.145 47.6872C202.351 47.4188 202.608 47.1935 202.901 47.0242C203.194 46.8549 203.518 46.745 203.853 46.7007C204.189 46.6565 204.53 46.6787 204.857 46.7661C205.184 46.8536 205.491 47.0046 205.76 47.2104L205.704 47.2854L205.761 47.2115C206.303 47.6278 206.657 48.2418 206.747 48.9189C206.836 49.5961 206.653 50.281 206.238 50.8235L195.791 64.4388C195.549 64.7525 195.238 65.0064 194.883 65.1807C194.527 65.3551 194.136 65.4452 193.74 65.4441Z" fill="#FF7B40"/>
<path d="M229.783 80.0834H138.726C134.884 80.0791 131.2 78.5519 128.483 75.8371C125.766 73.1223 124.238 69.4416 124.234 65.6024V22.5954C124.238 18.7562 125.766 15.0755 128.483 12.3607C131.2 9.64593 134.883 8.11878 138.726 8.11438H229.783C233.626 8.11878 237.309 9.64593 240.026 12.3607C242.743 15.0756 244.271 18.7564 244.275 22.5956V65.6021C244.271 69.4414 242.743 73.1222 240.026 75.837C237.309 78.5519 233.625 80.0791 229.783 80.0834Z" stroke="#F2F2F2"/>
<path d="M504.413 72.0874H413.354C409.496 72.083 405.798 70.5497 403.07 67.8239C400.342 65.098 398.808 61.4022 398.804 57.5473V14.5401C398.808 10.6852 400.342 6.98936 403.07 4.26351C405.798 1.53766 409.496 0.00436429 413.354 0H504.413C508.27 0.00436429 511.969 1.53766 514.697 4.26351C517.424 6.98936 518.959 10.6852 518.963 14.5401V57.5473C518.959 61.4022 517.424 65.098 514.697 67.8239C511.969 70.5497 508.27 72.083 504.413 72.0874Z" fill="#FF7B40"/>
<path d="M459.324 60.3634C472.961 60.3634 484.016 49.3164 484.016 35.6892C484.016 22.0621 472.961 11.0151 459.324 11.0151C445.687 11.0151 434.632 22.0621 434.632 35.6892C434.632 49.3164 445.687 60.3634 459.324 60.3634Z" fill="white"/>
<path d="M456.877 45.1019C456.321 45.103 455.78 44.9235 455.336 44.5905L455.308 44.5698L449.506 40.1302C448.963 39.7147 448.608 39.1007 448.518 38.4234C448.428 37.746 448.611 37.0608 449.027 36.5185C449.443 35.9761 450.058 35.6211 450.735 35.5314C451.413 35.4417 452.099 35.6248 452.642 36.0404L456.4 38.9203L465.282 27.345C465.488 27.0766 465.745 26.8513 466.038 26.682C466.331 26.5128 466.655 26.4029 466.991 26.3586C467.326 26.3143 467.667 26.3365 467.994 26.424C468.321 26.5114 468.628 26.6624 468.897 26.8683L468.841 26.9432L468.898 26.8694C469.44 27.2856 469.795 27.8996 469.884 28.5768C469.973 29.2539 469.791 29.9388 469.375 30.4813L458.928 44.0966C458.686 44.4103 458.375 44.6642 458.02 44.8386C457.664 45.0129 457.273 45.103 456.877 45.1019Z" fill="#FF7B40"/>
<path d="M25.5226 466.319C30.2373 471.466 36.0843 475.298 42.4291 478.273H42.4369C43.0337 478.556 43.6309 478.832 44.2356 479.092H44.243L44.2509 479.099L44.2583 479.092H44.2658C44.2658 479.093 44.266 479.094 44.2664 479.095C44.2668 479.096 44.2674 479.096 44.2681 479.097C44.2688 479.098 44.2697 479.098 44.2707 479.099C44.2716 479.099 44.2727 479.099 44.2737 479.099H44.2816L44.289 479.092C44.2965 479.099 44.2965 479.099 44.3043 479.092L44.3118 479.099L44.3196 479.092H44.3271C44.335 479.099 44.335 479.099 44.3424 479.092H44.3503C48.597 480.927 52.9585 482.486 57.4072 483.757C83.5671 491.173 111.062 492.608 137.853 487.956C138.366 487.864 138.871 487.772 139.384 487.68V425.647C138.879 425.433 138.366 425.219 137.853 425.012C134.508 423.628 131.123 422.356 127.697 421.196C122.768 419.513 117.77 418.07 112.704 416.867C96.1738 412.869 79.118 411.491 62.16 412.783C59.0755 413.012 55.9988 413.344 52.9299 413.777C46.5085 414.672 39.7735 416.232 33.8496 418.939H33.8421C32.977 419.345 32.1275 419.765 31.2856 420.217C26.02 423.069 21.5812 426.993 18.8718 432.37C17.8984 434.3 17.1978 436.357 16.7899 438.48V438.496C16.637 439.23 16.5298 439.972 16.4457 440.706C15.4811 449.761 19.2391 459.451 25.5226 466.319Z" fill="#F2F2F2"/>
<path d="M1.17676 353.38C2.95262 360.126 6.35818 366.237 10.5904 371.812L10.5983 371.82C10.9888 372.34 11.3942 372.867 11.8151 373.372V373.38C14.7535 376.997 17.9264 380.418 21.3132 383.621C33.4874 395.214 47.2388 405.032 62.16 412.783C85.6332 425.035 111.869 432.278 137.853 432.691C138.052 432.698 138.251 432.698 138.45 432.698C138.764 432.706 139.078 432.706 139.384 432.706V397.945C138.886 396.997 138.374 396.049 137.853 395.108C131.1 382.966 122.866 371.709 113.339 361.594C113.109 361.342 112.872 361.089 112.635 360.845C109.053 357.067 105.298 353.469 101.369 350.053C86.2545 336.773 68.7872 326.436 49.8685 319.576C43.7685 317.388 37.0795 315.637 30.574 315.293C29.6173 315.239 28.6681 315.216 27.7114 315.224C21.7186 315.308 15.971 316.723 11.065 320.226C9.30829 321.487 7.73235 322.982 6.381 324.669C5.90677 325.258 5.47028 325.862 5.04948 326.482V326.489C-0.0172272 334.061 -1.19589 344.378 1.17676 353.38Z" fill="#F2F2F2"/>
<path d="M108.915 339.254V339.262C108.969 339.919 109.03 340.57 109.099 341.22V341.235C109.631 345.862 110.462 350.451 111.586 354.971C112.122 357.189 112.704 359.391 113.339 361.594C113.415 361.877 113.5 362.16 113.584 362.435V362.443C115.453 368.849 117.686 375.144 120.273 381.296C125.032 392.622 130.922 403.44 137.853 413.586C138.35 414.328 138.863 415.069 139.384 415.804V296.035C138.871 296.004 138.366 296.004 137.853 296.019C137.608 296.019 137.363 296.027 137.118 296.042C134.959 296.156 132.826 296.57 130.781 297.274C130.062 297.511 129.365 297.779 128.676 298.077C120.327 301.733 113.767 309.794 110.92 318.658C108.785 325.296 108.356 332.279 108.915 339.254Z" fill="#F2F2F2"/>
<defs>
<filter id="filter0_d_2211_1563" x="113.962" y="36.6382" width="464.984" height="511.622" filterUnits="userSpaceOnUse" colorInterpolationFilters="sRGB">
<feFlood flood-opacity="0" result="BackgroundImageFix"/>
<feColorMatrix in="SourceAlpha" type="matrix" values="0 0 0 0 0 0 0 0 0 0 0 0 0 0 0 0 0 0 127 0" result="hardAlpha"/>
<feOffset dy="15"/>
<feGaussianBlur stdDeviation="12.5"/>
<feComposite in2="hardAlpha" operator="out"/>
<feColorMatrix type="matrix" values="0 0 0 0 0.145098 0 0 0 0 0.133333 0 0 0 0 0.235294 0 0 0 0.2 0"/>
<feBlend mode="normal" in2="BackgroundImageFix" result="effect1_dropShadow_2211_1563"/>
<feBlend mode="normal" in="SourceGraphic" in2="effect1_dropShadow_2211_1563" result="shape"/>
</filter>
</defs>
</svg>
