<svg width="578" height="540" viewBox="0 0 578 540" fill="none" xmlns="http://www.w3.org/2000/svg">
<g filter="url(#filter0_d_2114_1104)">
<path d="M117 233C117 112.602 214.602 15 335 15C455.398 15 553 112.602 553 233V475C553 488.807 541.807 500 528 500H142C128.193 500 117 488.807 117 475V233Z" fill="#8DBCDD"/>
<path d="M124.5 233C124.5 116.744 218.744 22.5 335 22.5C451.256 22.5 545.5 116.744 545.5 233V475C545.5 484.665 537.665 492.5 528 492.5H142C132.335 492.5 124.5 484.665 124.5 475V233Z" stroke="#F7F5F5" stroke-width="15"/>
</g>
<mask id="mask0_2114_1104" style="mask-type:alpha" maskUnits="userSpaceOnUse" x="117" y="15" width="436" height="485">
<path d="M124.5 233C124.5 116.744 218.744 22.5 335 22.5C451.256 22.5 545.5 116.744 545.5 233V475C545.5 484.665 537.665 492.5 528 492.5H142C132.335 492.5 124.5 484.665 124.5 475V233Z" fill="#8DBCDD" stroke="#F7F5F5" stroke-width="15"/>
</mask>
<g mask="url(#mask0_2114_1104)">
<path d="M135.015 424.398C170.719 405.141 244.525 372.834 337.687 372.834C430.849 372.834 504.655 405.141 540.359 424.398C575.117 443.146 603.071 465.251 616.239 483.287C621.039 476.489 613.994 355.556 594.498 307.595C565.917 237.115 517.984 176.975 456.703 134.711C395.421 92.4469 323.516 69.9369 249.995 70.0008C223.844 69.9264 197.939 75.2497 173.778 85.6623C149.618 96.075 127.682 111.37 109.242 130.663C108.458 131.478 107.682 132.298 106.914 133.125C65.6532 177.472 46.3874 239.172 53.4214 300.46C58.4293 344.095 70.7714 435.361 88.2102 454.712C102.977 443.275 118.633 433.135 135.015 424.398Z" fill="#F2F2F2"/>
<path d="M447.592 259.914C444.099 261.77 440.159 262.933 436.06 263.316C429.311 263.925 421.816 263.597 418.187 262.079C414.558 260.561 409.99 258.375 409.99 258.375C409.99 258.375 392.124 263.517 381.402 271.569C370.679 279.62 370.468 280.057 370.468 280.057L354.38 258.141L337.772 264.045L347.619 297.847C347.619 297.847 348.49 307.92 358.116 311.408C367.742 314.896 394.531 302.706 394.531 302.706L376.694 371.541L457.914 369.255L458.903 304.744L462.999 368.205L479.133 365.979L480.786 314.938C480.786 314.938 482.564 273.454 467.759 267.341C452.955 261.227 447.592 259.914 447.592 259.914Z" fill="#F47A43"/>
<path d="M338.273 262.943C338.273 262.943 330.625 258.573 331.184 257.05C331.742 255.528 336.158 256.917 336.158 256.917C336.158 256.917 330.731 251.147 333.814 252.32L338.246 254.008C338.246 254.008 334.143 246.593 336.25 247.835C337.992 248.982 339.613 250.258 341.095 251.646C341.095 251.646 339.827 245.418 341.65 246.692C343.302 247.977 344.86 249.349 346.315 250.797C346.315 250.797 349.087 254.645 350.67 251.094C352.254 247.542 353.165 258.206 353.165 258.206L339.26 263.408L338.273 262.943Z" fill="#FABEB7"/>
<path d="M417.74 247.775C418.674 250.083 418.88 252.557 418.336 254.947C417.115 259.336 416.321 261.443 416.321 261.443C421.081 263.471 426.417 264.286 431.689 263.789C440.188 262.882 443.692 261.667 443.692 261.667C443.692 261.667 441.07 256.73 441.387 254.087C441.609 252.349 441.97 250.626 442.469 248.932L451.89 238.883C451.89 238.883 457.191 237.975 458.148 236.515C459.105 235.056 459.816 234.727 459.664 233.08C459.512 231.433 459.369 229.7 458.285 228.979C457.292 228.442 456.204 228.047 455.064 227.81C455.007 224.719 454.603 221.639 453.857 218.611C452.63 213.73 448.706 204.867 439.66 203.841C430.615 202.814 420.683 205.357 417.769 212.093C414.856 218.828 412.867 225.48 412.867 225.48C412.164 225.391 411.448 225.457 410.785 225.671C410.122 225.885 409.535 226.24 409.08 226.702C408.034 227.877 407.269 229.216 406.827 230.645C406.827 230.645 406.139 233.735 407.97 234.971C409.801 236.208 412.603 235.633 412.603 235.633C412.914 238.134 413.833 240.556 415.301 242.743C417.782 246.616 417.74 247.775 417.74 247.775Z" fill="#FABEB7"/>
<path d="M463.59 369.68C463.59 369.68 459.877 376.829 461.312 377.866C462.747 378.904 465.603 375.729 465.603 375.729C465.603 375.729 464.656 383.058 466.524 380.673L469.21 377.247C469.21 377.247 470.422 385.366 471.418 383.367C472.169 381.619 472.739 379.817 473.122 377.982C473.122 377.982 475.989 383.835 476.685 381.924C477.269 380.097 477.72 378.24 478.036 376.364C478.036 376.364 477.95 371.858 481.551 374.139C485.151 376.419 479.173 366.997 479.173 366.997L464.106 368.889L463.59 369.68Z" fill="#FABEB7"/>
<path d="M456.264 369.181L463.195 485.076L428.63 485.057L418.746 388.629L413.67 485.048L382.848 484.578L379.678 370.875L456.264 369.181Z" fill="#24223A"/>
<path d="M417.219 221.16C417.219 221.16 414.564 226.107 413.832 228.743C413.101 231.379 413.565 231.84 410.308 230.671C407.051 229.501 400.765 223.052 403.458 219.204C406.152 215.356 407.405 216.031 407.405 216.031C407.405 216.031 405.853 209.798 411.062 205.971C416.271 202.144 418.473 200.521 421.889 200.955C424.403 201.393 426.836 202.126 429.118 203.134C429.118 203.134 434.793 197.256 437.279 196.829C439.766 196.403 443.675 195.264 448.468 198.348C453.26 201.432 460.825 205.943 461.686 213.398C462.546 220.854 458.724 225.971 457.591 229.14C456.458 232.309 454.099 231.683 454.099 231.683C454.099 231.683 451.082 216.904 450.153 216.031C449.224 215.158 446.358 212.86 444.718 213.916C443.078 214.972 438.774 217.835 434.475 217.589C430.176 217.344 422.953 215.655 422.953 215.655C422.953 215.655 423.033 218.424 420.141 218.781C417.249 219.138 417.219 221.16 417.219 221.16Z" fill="#1C1D1D"/>
<path d="M433.153 221.859L429.362 237.302L437.651 234.741C437.651 234.741 438.907 233.212 437.137 233.813C435.367 234.414 430.666 235.96 430.666 235.96L433.153 221.859Z" fill="#1C1D1D"/>
<path d="M425.047 225.845C425.243 224.967 425.07 224.2 424.66 224.131C424.25 224.062 423.758 224.718 423.562 225.595C423.365 226.473 423.538 227.24 423.948 227.309C424.358 227.377 424.85 226.722 425.047 225.845Z" fill="#1C1D1D"/>
<path d="M442.1 226.613C442.296 225.735 442.123 224.968 441.713 224.899C441.303 224.83 440.812 225.486 440.615 226.363C440.418 227.241 440.591 228.008 441.001 228.077C441.411 228.146 441.903 227.49 442.1 226.613Z" fill="#1C1D1D"/>
<path d="M432.038 242.903C433.636 243.361 435.193 243.681 436.83 243.189C438.352 242.657 439.707 241.832 440.792 240.779C441.361 240.281 440.474 239.495 439.905 239.994C439.005 240.874 437.901 241.585 436.661 242.082C435.198 242.595 433.845 242.279 432.398 241.868C431.617 241.649 431.264 242.685 432.038 242.91L432.038 242.903Z" fill="#1C1D1D"/>
<path d="M417.985 222.229C419.408 219.965 424.869 218.631 426.929 220.883C427.506 221.514 428.547 220.652 427.969 220.027C425.296 217.106 418.589 218.616 416.732 221.579C416.291 222.279 417.537 222.928 417.978 222.223L417.985 222.229Z" fill="#1C1D1D"/>
<path d="M439.522 220.913C441.555 219.033 447.235 218.863 448.59 221.494C448.97 222.227 450.231 221.617 449.859 220.896C448.117 217.508 441.197 217.562 438.506 220.02C437.877 220.629 438.886 221.504 439.515 220.913L439.522 220.913Z" fill="#1C1D1D"/>
<path d="M415.642 234.794C415.851 235.138 415.964 235.518 415.971 235.905C415.965 236.184 416.489 236.193 416.479 235.914C416.472 235.45 416.338 234.993 416.089 234.579C415.941 234.328 415.493 234.568 415.649 234.788L415.642 234.794Z" fill="#1C1D1D"/>
<path d="M417.925 234.749C418.128 235.096 418.207 235.486 418.151 235.87C418.146 236.149 418.626 236.158 418.66 235.879C418.721 235.417 418.621 234.949 418.372 234.534C418.224 234.283 417.783 234.523 417.932 234.743L417.925 234.749Z" fill="#1C1D1D"/>
<path d="M447.987 234.798C447.67 235.148 447.451 235.556 447.348 235.99C447.285 236.262 447.769 236.389 447.832 236.117C447.925 235.718 448.126 235.343 448.419 235.023C448.62 234.803 448.18 234.578 447.987 234.798Z" fill="#1C1D1D"/>
<path d="M445.758 234.354C445.432 234.725 445.242 235.171 445.211 235.635C445.206 235.914 445.693 235.923 445.72 235.644C445.753 235.258 445.919 234.89 446.197 234.586C446.39 234.36 445.958 234.141 445.765 234.361L445.758 234.354Z" fill="#1C1D1D"/>
<path d="M397.694 300.58C392.991 303.076 388.094 305.296 383.036 307.226C377.911 309.236 372.688 311.083 367.038 311.577C366.579 311.618 366.561 312.238 367.027 312.197C372.378 311.729 377.365 310.101 382.218 308.222C387.695 306.18 392.992 303.807 398.07 301.12C398.459 300.904 398.083 300.363 397.716 300.58L397.694 300.58Z" fill="#1C1D1D"/>
<path d="M366.563 275.531C369.571 279.033 371.426 283.156 371.937 287.467C371.98 287.859 372.707 287.878 372.663 287.48C372.157 283.058 370.271 278.826 367.201 275.226C366.931 274.905 366.293 275.209 366.571 275.525L366.563 275.531Z" fill="#1C1D1D"/>
<path d="M457.594 300.457C458.797 310.82 459.502 321.222 459.71 331.662C459.703 332.059 460.43 332.072 460.437 331.675C460.229 321.256 459.523 310.854 458.321 300.47C458.277 300.079 457.551 300.059 457.594 300.457Z" fill="#1C1D1D"/>
<path d="M417.393 387.735C416.673 412.152 415.424 436.552 413.644 460.933C413.141 467.823 412.594 474.711 412.004 481.596C411.997 481.993 412.723 482.006 412.73 481.609C414.811 457.241 416.36 432.864 417.38 408.478C417.665 401.579 417.909 394.677 418.112 387.773C418.113 387.691 418.076 387.611 418.009 387.552C417.942 387.493 417.85 387.458 417.754 387.457C417.658 387.455 417.565 387.486 417.496 387.543C417.426 387.6 417.387 387.678 417.385 387.76L417.393 387.735Z" fill="#1C1D1D"/>
<path d="M425.744 250.483C431.195 251.327 437.068 252.097 441.966 249.369C442.355 249.153 441.98 248.606 441.613 248.829C436.884 251.461 431.213 250.707 425.951 249.891C425.494 249.821 425.287 250.413 425.743 250.508L425.744 250.483Z" fill="#1C1D1D"/>
<path d="M350.821 250.284C350.063 250.827 349.486 251.531 349.149 252.326C348.989 252.701 349.684 252.875 349.872 252.506C350.176 251.813 350.689 251.202 351.358 250.734C351.719 250.48 351.211 250.03 350.85 250.284L350.821 250.284Z" fill="#1C1D1D"/>
<path d="M340.324 246.37L340.448 251.113C340.441 251.51 341.168 251.523 341.175 251.126L341.05 246.383C341.058 245.986 340.331 245.973 340.324 246.37Z" fill="#1C1D1D"/>
<path d="M335.562 248.455C336.117 250.215 336.774 251.949 337.532 253.653C337.7 254.023 338.4 253.874 338.262 253.499C337.504 251.795 336.846 250.06 336.292 248.301C336.267 248.218 336.205 248.147 336.119 248.103C336.034 248.059 335.931 248.046 335.834 248.066C335.738 248.087 335.654 248.139 335.603 248.212C335.552 248.285 335.537 248.373 335.562 248.455Z" fill="#1C1D1D"/>
<path d="M333.04 253.603C333.796 254.99 334.809 256.266 336.039 257.38C336.361 257.671 336.885 257.247 336.563 256.949C335.376 255.868 334.402 254.631 333.678 253.286C333.481 252.922 332.851 253.227 333.048 253.584L333.04 253.603Z" fill="#1C1D1D"/>
<path d="M331.505 258.154C332.167 258.495 332.409 259.219 332.931 259.694C333.376 260.083 333.884 260.417 334.439 260.683C335.751 261.327 337.268 261.808 338.031 263.013C338.083 263.076 338.16 263.121 338.248 263.138C338.336 263.156 338.428 263.145 338.506 263.107C338.585 263.07 338.644 263.01 338.673 262.937C338.702 262.864 338.698 262.785 338.662 262.714C337.956 261.585 336.664 261.046 335.381 260.44C334.561 260.117 333.828 259.654 333.225 259.079C332.748 258.555 332.518 257.986 331.834 257.633C331.753 257.6 331.66 257.593 331.574 257.615C331.488 257.637 331.415 257.686 331.368 257.751C331.322 257.817 331.306 257.895 331.323 257.97C331.34 258.046 331.389 258.113 331.461 258.16L331.505 258.154Z" fill="#1C1D1D"/>
<path d="M412.378 238.712C414.156 242.079 416.233 245.325 418.591 248.424C418.846 248.757 419.477 248.44 419.221 248.125C416.863 245.027 414.786 241.78 413.008 238.413C412.818 238.05 412.18 238.355 412.378 238.712Z" fill="#1C1D1D"/>
<path d="M410.172 259.532C415.484 263.6 422.667 264.723 429.574 264.65C430.039 264.658 430.05 264.038 429.585 264.03C422.882 264.075 415.857 263.054 410.688 259.101C410.344 258.834 409.813 259.265 410.164 259.532L410.172 259.532Z" fill="#1C1D1D"/>
</g>
<path d="M195.202 436.9C195.202 436.9 195.103 444.762 195.804 445.975C196.505 447.188 197.24 444.473 198.172 444.168C199.104 443.863 199.665 446.932 200.317 448.937C200.969 450.942 201.967 452.237 202.313 449.176C202.66 446.115 203.815 443.805 205.556 449.176C207.297 454.547 208.229 455.108 208.74 451.239C209.252 447.369 208.089 442.881 210.39 445.958C212.692 449.036 215.34 450.702 214.515 448.161C213.69 445.62 211.941 440.736 212.75 440.018C213.558 439.301 218.03 441.668 217.7 440.629C216.792 438.805 215.603 437.135 214.177 435.679C213.121 434.697 194.971 436.174 194.971 436.174L195.202 436.9Z" fill="#FABEB7"/>
<path d="M314.144 301.605L333.367 295.459C333.367 295.459 341.122 326.958 339.29 345.166C337.459 363.374 337.475 376.913 326.131 376.187C314.787 375.461 300.019 367.689 300.019 367.689L324.499 485H219.448V368.902L213.673 434.763L195.102 435.283C195.102 435.283 186.126 388.653 191.266 362.83C196.405 337.007 205.151 320.465 205.151 320.465L216.833 298.594C216.833 298.594 223.746 300.244 231.823 302.397C239.9 304.55 251.665 303.527 258.801 301.226C265.938 298.924 278.693 289.428 278.693 289.428L293.337 309.055L307.84 326.999L313.038 335.018L314.144 301.605Z" fill="#F47A43"/>
<path d="M231.52 221.694C231.52 221.694 222.585 227.774 213.848 241.494C208.595 249.704 203.935 258.278 199.905 267.152L206.992 271.872L199.237 283.628L210.251 296.564C209.562 303.379 207.541 309.991 204.303 316.026C199.097 325.258 188.495 352.286 188.495 352.286C188.495 352.286 183.966 366.98 202.298 380.18C220.63 393.38 241.981 413.181 258.754 411.753C275.526 410.326 294.56 399.155 298.792 394.783C303.024 390.41 317.586 359.307 317.47 350.652C317.355 341.998 311.555 331.735 300.524 317.569C289.494 303.404 277.812 288.982 277.812 288.982C277.812 288.982 282.457 264.999 282.003 259.727C281.549 254.455 280.501 242.055 268.712 230.802C256.922 219.549 247.212 216.447 240.026 218.674C232.84 220.902 231.52 221.694 231.52 221.694Z" fill="#24223A"/>
<path d="M236.468 232.502C236.468 232.502 232.029 234.977 230.8 242.93C230.676 243.755 230.561 244.687 230.462 245.719C229.637 254.662 229.794 270.403 230.396 273.002C231.064 275.906 236.683 292.142 245.576 292.233C254.47 292.324 262.613 286.128 265.129 283.372C267.645 280.617 272.983 271.278 273.379 262.994C273.775 254.711 271.589 241.989 266.243 236.313C260.897 230.637 253.043 225.167 245.428 227.931C237.813 230.695 236.468 232.502 236.468 232.502Z" fill="#FABEB7"/>
<path d="M243.409 236.965C250.166 234.275 254.679 232.617 260.371 234.886C266.064 237.155 266.204 236.297 266.204 236.297L258.482 229.754C258.482 229.754 252.311 226.891 249.795 227.106C247.278 227.32 239.193 229.276 237.477 231.536C235.761 233.797 233.872 233.962 232.618 236.602C231.763 238.615 231.162 240.727 230.828 242.889L243.409 236.965Z" fill="#F8F7F8"/>
<path d="M250.075 252.079L255.231 270.23L246.593 267.755C246.593 267.755 245.191 266.022 247.039 266.616C248.887 267.21 253.796 268.745 253.796 268.745L250.075 252.079Z" fill="#1C1D1D"/>
<path d="M260.636 256.559C261.05 256.449 261.164 255.525 260.89 254.494C260.616 253.464 260.059 252.718 259.645 252.828C259.231 252.938 259.117 253.862 259.391 254.892C259.665 255.923 260.222 256.669 260.636 256.559Z" fill="#1C1D1D"/>
<path d="M241.813 258.726C242.227 258.616 242.34 257.692 242.067 256.661C241.793 255.631 241.236 254.884 240.822 254.994C240.408 255.104 240.294 256.029 240.568 257.059C240.841 258.09 241.399 258.836 241.813 258.726Z" fill="#1C1D1D"/>
<path d="M251.642 279.676C250.041 280.138 248.465 280.501 246.84 279.907C245.526 279.324 244.353 278.466 243.4 277.391C242.748 276.723 241.75 277.746 242.377 278.414C243.54 279.718 244.992 280.732 246.617 281.376C248.44 282.011 250.231 281.59 252.021 281.07C252.192 281.007 252.333 280.882 252.416 280.72C252.499 280.558 252.518 280.37 252.47 280.195C252.421 280.019 252.308 279.868 252.153 279.772C251.998 279.676 251.812 279.642 251.633 279.676H251.642Z" fill="#1C1D1D"/>
<path d="M233.968 248.845C234.851 246.139 239.958 243.532 242.342 245.669C243.167 246.378 244.306 245.215 243.506 244.506C240.098 241.453 233.671 244.44 232.368 248.408C232.038 249.423 233.63 249.852 233.96 248.845H233.968Z" fill="#1C1D1D"/>
<path d="M255.181 243.4C256.707 240.991 262.3 239.721 264.082 242.385C264.668 243.26 266.104 242.435 265.51 241.56C262.969 237.765 255.997 239.085 253.753 242.575C253.184 243.474 254.578 244.299 255.181 243.4Z" fill="#1C1D1D"/>
<path d="M235.025 278.315C243.787 278.315 243.795 264.702 235.025 264.702C226.255 264.702 226.255 278.315 235.025 278.315Z" fill="#F2675E"/>
<path d="M269.207 277.193C277.968 277.193 277.977 263.58 269.207 263.58C260.437 263.58 260.437 277.193 269.207 277.193Z" fill="#F2675E"/>
<path d="M232.904 270.601C233.197 270.982 233.397 271.425 233.49 271.896C233.564 272.259 234.117 272.103 234.043 271.74C233.941 271.218 233.721 270.727 233.399 270.304C233.177 270.015 232.673 270.304 232.904 270.593V270.601Z" fill="#1C1D1D"/>
<path d="M235.157 270.106C235.432 270.466 235.595 270.899 235.627 271.352C235.627 271.723 236.229 271.723 236.205 271.352C236.175 270.795 235.982 270.258 235.652 269.809C235.437 269.512 234.934 269.809 235.157 270.098V270.106Z" fill="#1C1D1D"/>
<path d="M271.137 269.33C270.88 269.823 270.738 270.367 270.725 270.923C270.725 270.999 270.755 271.073 270.809 271.127C270.863 271.181 270.937 271.211 271.013 271.211C271.09 271.211 271.163 271.181 271.218 271.127C271.272 271.073 271.302 270.999 271.302 270.923C271.313 270.468 271.429 270.022 271.64 269.619C271.814 269.289 271.31 269 271.145 269.33H271.137Z" fill="#1C1D1D"/>
<path d="M268.827 269.223C268.57 269.718 268.464 270.277 268.521 270.832C268.521 271.195 269.14 271.203 269.099 270.832C269.046 270.382 269.127 269.926 269.33 269.52C269.495 269.19 269 268.893 268.835 269.232L268.827 269.223Z" fill="#1C1D1D"/>
<path d="M333.664 298.264C337.385 314.187 338.672 331.314 338.763 347.641C338.793 347.727 338.848 347.801 338.922 347.853C338.996 347.905 339.085 347.933 339.175 347.933C339.266 347.933 339.354 347.905 339.428 347.853C339.502 347.801 339.558 347.727 339.588 347.641C339.505 331.24 338.202 314.038 334.464 298.033C334.341 297.488 333.499 297.719 333.639 298.264H333.664Z" fill="#1C1D1D"/>
<path d="M330.737 294.79C330.737 294.79 332.717 285.715 331.042 284.8C329.367 283.884 327.296 288.182 327.296 288.182C327.296 288.182 326.471 279.462 325.209 282.621L323.361 287.167C323.361 287.167 320.226 277.977 319.714 280.509C319.385 282.693 319.247 284.902 319.302 287.11C319.302 287.11 315.061 280.905 314.797 283.273C314.657 285.529 314.657 287.791 314.797 290.047C314.797 290.047 315.952 295.269 311.844 293.347C307.735 291.424 315.903 301.16 315.903 301.16L330.39 295.814L330.737 294.79Z" fill="#FABEB7"/>
<path d="M225.967 296.482C231.244 308.424 240.059 318.46 251.221 325.234C251.699 325.522 252.137 324.772 251.658 324.483C240.626 317.776 231.921 307.844 226.718 296.028C226.495 295.516 225.744 295.962 225.967 296.465V296.482Z" fill="#1C1D1D"/>
<path d="M212.84 314.756C217.075 321.508 222.471 327.457 228.779 332.329C234.356 336.602 241.856 341.816 249.173 341.775C249.259 341.745 249.333 341.689 249.385 341.616C249.438 341.542 249.466 341.453 249.466 341.363C249.466 341.272 249.438 341.184 249.385 341.11C249.333 341.036 249.259 340.98 249.173 340.95C241.625 340.95 233.457 335.093 227.797 330.497C222.21 325.925 217.403 320.475 213.566 314.36C213.269 313.89 212.518 314.36 212.815 314.797L212.84 314.756Z" fill="#1C1D1D"/>
<path d="M275.179 278.958C275.265 278.928 275.339 278.873 275.391 278.799C275.443 278.725 275.471 278.636 275.471 278.546C275.471 278.455 275.443 278.367 275.391 278.293C275.339 278.219 275.265 278.163 275.179 278.133C275.094 278.163 275.02 278.219 274.967 278.293C274.915 278.367 274.887 278.455 274.887 278.546C274.887 278.636 274.915 278.725 274.967 278.799C275.02 278.873 275.094 278.928 275.179 278.958Z" fill="#1C1D1D"/>
<path d="M234.035 283.612C237.665 288.232 241.708 292.81 248.003 293.008C254.298 293.206 259.759 289.345 264.272 285.253C264.685 284.882 264.074 284.263 263.662 284.643C259.297 288.595 254.174 292.291 247.986 292.142C241.964 292.002 238.086 287.357 234.629 283.001C234.283 282.564 233.672 283.183 234.019 283.612H234.035Z" fill="#1C1D1D"/>
<path d="M314.523 302.183C320.719 300.054 326.898 297.942 333.061 295.715C333.581 295.525 333.358 294.692 332.83 294.89C326.667 297.117 320.455 299.229 314.292 301.358C313.764 301.539 313.995 302.372 314.523 302.183Z" fill="#1C1D1D"/>
<path d="M330.992 285.699C331.817 288.487 331.058 291.218 330.538 293.949C330.439 294.493 331.272 294.725 331.363 294.18C331.908 291.251 332.716 288.405 331.817 285.427C331.652 284.899 330.819 285.121 330.992 285.658V285.699Z" fill="#1C1D1D"/>
<path d="M325.828 282.481C326.546 284.197 327.322 286.408 327.082 288.256C327.016 288.809 327.907 288.801 327.907 288.256C328.155 286.301 327.363 284.008 326.62 282.226C326.406 281.722 325.573 281.937 325.795 282.457L325.828 282.481Z" fill="#1C1D1D"/>
<path d="M320.068 280.856C321.206 282.647 322.081 284.592 322.667 286.631C322.713 286.721 322.788 286.792 322.881 286.832C322.973 286.872 323.076 286.879 323.173 286.852C323.27 286.825 323.355 286.765 323.413 286.683C323.471 286.601 323.499 286.501 323.492 286.4C322.886 284.285 321.98 282.268 320.802 280.41C320.505 279.94 319.754 280.41 320.051 280.848L320.068 280.856Z" fill="#1C1D1D"/>
<path d="M315.341 283.298C316.05 283.422 316.859 284.387 317.354 284.899C317.98 285.516 318.479 286.251 318.823 287.06C319.029 287.572 319.87 287.349 319.648 286.829C319.257 285.879 318.682 285.015 317.956 284.288C317.346 283.661 316.455 282.638 315.555 282.465C315.011 282.366 314.78 283.207 315.324 283.29L315.341 283.298Z" fill="#1C1D1D"/>
<path d="M311.454 293.743C312.188 293.8 312.782 294.312 313.55 294.229C314.094 294.172 314.102 293.305 313.55 293.404C312.832 293.479 312.172 292.975 311.454 292.918C310.901 292.868 310.901 293.743 311.454 293.743Z" fill="#1C1D1D"/>
<path d="M214.448 250.842C213.865 261.753 215.55 272.667 219.399 282.894C219.588 283.414 220.43 283.191 220.224 282.663C216.408 272.506 214.739 261.668 215.323 250.834C215.323 250.273 214.498 250.281 214.498 250.834L214.448 250.842Z" fill="#1C1D1D"/>
<path d="M230.761 239.82C228.83 247.675 228.117 255.781 228.649 263.852C228.649 264.405 229.548 264.413 229.474 263.852C228.939 255.851 229.641 247.814 231.553 240.026C231.685 239.481 230.851 239.25 230.728 239.795L230.761 239.82Z" fill="#1C1D1D"/>
<path d="M267.284 237.955C270.961 245.269 273.005 253.294 273.274 261.476C273.274 262.029 274.156 262.037 274.14 261.476C273.854 253.154 271.771 244.993 268.035 237.551C267.787 237.056 267.037 237.493 267.284 237.988V237.955Z" fill="#1C1D1D"/>
<path d="M273.389 293.685C270.419 297.538 268.497 304.122 262.713 304.303C262.161 304.303 262.152 305.186 262.713 305.128C268.934 304.93 270.964 298.231 274.132 294.081C274.47 293.644 273.719 293.207 273.381 293.644L273.389 293.685Z" fill="#1C1D1D"/>
<path d="M256.831 326.397C260.816 328.74 265.453 327.156 269.545 325.836C275.085 324.004 280.369 321.472 285.27 318.304C285.74 318.007 285.27 317.256 284.832 317.553C280.807 320.145 276.521 322.307 272.044 324.004C267.672 325.654 261.616 328.129 257.268 325.605C257.17 325.562 257.059 325.556 256.957 325.59C256.855 325.623 256.769 325.693 256.715 325.785C256.661 325.878 256.643 325.987 256.664 326.093C256.686 326.198 256.745 326.291 256.831 326.356V326.397Z" fill="#1C1D1D"/>
<path d="M256.758 341.264C261.97 341.559 267.193 340.927 272.185 339.399C274.365 338.718 276.484 337.857 278.522 336.825C281.096 335.521 284.932 331.825 287.91 332.23C288.455 332.304 288.694 331.471 288.141 331.405C283.942 330.827 279.974 335.307 276.261 336.957C270.119 339.614 263.438 340.793 256.758 340.397C256.197 340.397 256.205 341.222 256.758 341.222V341.264Z" fill="#1C1D1D"/>
<path d="M208.781 340.859C211.144 348.257 214.989 355.096 220.081 360.96C225.173 366.824 231.406 371.589 238.399 374.965C245.393 378.342 253.001 380.258 260.76 380.599C268.518 380.939 276.265 379.696 283.527 376.946C284.047 376.748 283.816 375.914 283.296 376.121C276.144 378.843 268.512 380.08 260.866 379.754C253.22 379.429 245.721 377.549 238.826 374.23C231.93 370.91 225.784 366.219 220.762 360.445C215.739 354.671 211.946 347.934 209.614 340.645C209.449 340.117 208.608 340.34 208.789 340.876L208.781 340.859Z" fill="#1C1D1D"/>
<path d="M278.909 291.697C291.455 307.02 303.341 322.849 314.566 339.185C314.88 339.639 315.631 339.185 315.317 338.748C304.053 322.368 292.12 306.478 279.52 291.078C279.165 290.649 278.554 291.26 278.909 291.689V291.697Z" fill="#1C1D1D"/>
<path d="M265.593 228.806C272.737 234.512 277.9 242.326 280.346 251.137C282.791 259.948 282.395 269.305 279.214 277.878C279.024 278.406 279.857 278.628 280.039 278.109C283.268 269.389 283.669 259.874 281.185 250.913C278.702 241.952 273.46 234.001 266.203 228.187C265.774 227.84 265.155 228.451 265.593 228.797V228.806Z" fill="#1C1D1D"/>
<path d="M211.052 289.246C210.282 295.549 209.267 301.811 208.007 308.032C207.9 308.576 208.733 308.807 208.832 308.263C210.103 301.96 211.129 295.621 211.91 289.246C211.976 288.694 211.085 288.702 211.043 289.246H211.052Z" fill="#1C1D1D"/>
<path d="M208.981 251.032C207.913 257.483 207.592 264.035 208.024 270.56C208.024 271.113 208.924 271.121 208.891 270.56C208.453 264.114 208.761 257.638 209.806 251.263C209.897 250.718 209.064 250.479 208.981 251.032Z" fill="#1C1D1D"/>
<path d="M200.549 283.067C202.585 280.063 204.788 277.177 207.149 274.421C207.512 274 206.902 273.381 206.539 273.81C204.128 276.621 201.878 279.566 199.798 282.63C199.485 283.092 200.236 283.529 200.549 283.067Z" fill="#1C1D1D"/>
<path d="M200.929 265.247L207.306 253.82C207.579 253.333 206.828 252.896 206.556 253.383L200.178 264.809C199.906 265.296 200.657 265.733 200.929 265.247Z" fill="#1C1D1D"/>
<path d="M198.098 329.656C193.709 337.807 190.855 345.867 188.082 354.695C187.917 355.231 188.751 355.454 188.908 354.926C191.638 346.222 194.501 338.145 198.808 330.093C199.072 329.606 198.321 329.161 198.057 329.656H198.098Z" fill="#1C1D1D"/>
<path d="M189.567 367.887C198.997 378.689 209.881 388.129 221.908 395.938C222.378 396.243 222.816 395.492 222.345 395.187C210.379 387.415 199.551 378.019 190.17 367.268C189.798 366.848 189.188 367.466 189.559 367.879L189.567 367.887Z" fill="#1C1D1D"/>
<path d="M316.43 345.174C318.163 353.16 314.97 361.675 312.058 369.025C309.264 376.052 305.756 382.772 301.588 389.082C301.283 389.552 302.034 389.981 302.339 389.519C306.806 382.747 310.519 375.507 313.411 367.928C316.15 360.693 318.963 352.731 317.272 344.943C317.156 344.399 316.315 344.63 316.447 345.174H316.43Z" fill="#1C1D1D"/>
<path d="M304.047 388.719C307.824 403.14 310.581 417.809 312.297 432.618C312.363 433.162 313.229 433.171 313.122 432.618C311.411 417.732 308.655 402.986 304.872 388.488C304.825 388.398 304.75 388.327 304.658 388.287C304.565 388.247 304.462 388.239 304.365 388.267C304.268 388.294 304.183 388.354 304.125 388.436C304.067 388.518 304.039 388.618 304.047 388.719Z" fill="#1C1D1D"/>
<path d="M194.955 437.56C194.584 439.906 194.773 442.306 195.507 444.564C195.681 445.092 196.514 444.869 196.332 444.333C195.636 442.226 195.447 439.985 195.78 437.791C195.862 437.246 195.029 437.007 194.955 437.56Z" fill="#1C1D1D"/>
<path d="M197.884 444.449L201.068 450.62C201.324 451.115 202.075 450.677 201.819 450.182L198.634 444.011C198.379 443.516 197.628 443.954 197.884 444.449Z" fill="#1C1D1D"/>
<path d="M203.016 446.643L207.347 453.499C207.644 453.969 208.395 453.499 208.098 453.062L203.767 446.206C203.47 445.736 202.719 446.206 203.016 446.643Z" fill="#1C1D1D"/>
<path d="M208.575 445.422C209.872 447.186 211.392 448.775 213.096 450.15C213.525 450.496 214.144 449.885 213.706 449.539C212.056 448.216 210.584 446.685 209.326 444.985C208.996 444.539 208.245 444.985 208.575 445.422Z" fill="#1C1D1D"/>
<path d="M213.021 440.662C214.206 440.629 215.356 441.065 216.222 441.874C216.635 442.254 217.245 441.643 216.833 441.264C215.803 440.295 214.435 439.768 213.021 439.795C212.936 439.825 212.862 439.881 212.809 439.955C212.757 440.029 212.729 440.117 212.729 440.208C212.729 440.298 212.757 440.387 212.809 440.461C212.862 440.535 212.936 440.59 213.021 440.62V440.662Z" fill="#1C1D1D"/>
<path d="M218.83 412.141C219.44 424.489 219.787 436.842 219.869 449.201C219.899 449.286 219.955 449.36 220.029 449.413C220.103 449.465 220.191 449.493 220.282 449.493C220.372 449.493 220.461 449.465 220.535 449.413C220.608 449.36 220.664 449.286 220.694 449.201C220.612 436.842 220.265 424.489 219.655 412.141C219.655 411.588 218.764 411.58 218.83 412.141Z" fill="#1C1D1D"/>
<path d="M245.891 409.583C255.329 413.931 263.917 412.397 273.306 408.824C281.474 405.714 290.945 403.272 297.124 396.73C297.504 396.325 296.893 395.715 296.514 396.119C290.739 402.216 282.134 404.534 274.51 407.447C264.948 411.093 256.129 413.362 246.328 408.841C245.825 408.61 245.387 409.352 245.891 409.592V409.583Z" fill="#1C1D1D"/>
<path d="M189.806 372.911C189.164 390.354 190.548 407.813 193.931 424.937C194.039 425.481 194.88 425.25 194.756 424.706C191.382 407.659 189.997 390.278 190.631 372.911C190.631 372.35 189.806 372.35 189.806 372.911Z" fill="#1C1D1D"/>
<path fill-rule="evenodd" clip-rule="evenodd" d="M67.4792 88.8185C68.65 89.3402 73.6277 104.19 75.1981 104.145C75.9473 104.145 80.6974 100.261 80.6974 100.261C80.198 99.2566 78.5166 97.1424 79.1936 96.8704C81.7573 95.8438 87.4785 96.3766 88.3553 96.8982C89.9091 97.8305 87.5784 104.933 85.8582 106.077C85.3976 106.382 84.7483 105.272 84.3044 104.595C84.3044 104.595 74.5655 112.136 73.0839 111.731C71.6022 111.326 70.8642 107.758 69.8098 107.292C68.7555 106.826 60.6425 111.731 60.6425 111.731C60.8368 113.79 62.3073 115.366 61.5582 115.993C59.4439 117.702 51.6972 114.217 51.1312 113.368C50.5652 112.519 55.0156 105.094 56.0645 104.44C57.1133 103.785 57.6404 105.91 58.4506 107.32C58.4506 107.32 67.0907 103.296 67.1018 101.609C67.1129 99.9225 61.9688 92.7585 61.8856 92.1758C61.6747 90.7441 66.3249 88.2969 67.4792 88.8185Z" fill="#F47A45"/>
<path fill-rule="evenodd" clip-rule="evenodd" d="M32.3304 150.187C32.3304 138.745 44.3778 129.527 54.4274 130.421C64.7101 131.331 72.3791 141.353 70.6255 154.282C70.2149 157.301 67.4514 166.74 64.9043 160.142C62.9066 154.971 60.3096 149.799 55.3541 147.113C44.7107 141.353 32.3304 152.473 32.3304 150.187Z" fill="#FF7B40"/>
<path fill-rule="evenodd" clip-rule="evenodd" d="M43.018 150.476C44.7938 151.857 47.0579 153.85 49.1555 154.682C50.1876 155.093 53.0066 152.357 54.1109 151.974C59.4881 150.115 54.6658 157.74 54.6658 159.87C54.6658 161.796 60.72 163.977 60.6146 167.084C60.5535 168.749 51.1809 167.084 50.0711 168.494C49.7104 168.943 46.6916 177.711 44.3998 177.667C42.108 177.622 43.584 168.078 41.2978 167.451C39.3389 166.896 35.4156 167.911 34.4334 165.692C33.5733 163.755 42.2911 160.98 41.8805 157.867C41.7362 156.757 39.9882 149.177 43.0236 150.453C43.1013 150.542 42.0247 150.059 43.018 150.476Z" fill="#F47A45"/>
<path fill-rule="evenodd" clip-rule="evenodd" d="M72.7947 125.41C67.9891 120.083 61.3633 116.836 59.9483 123.257C58.7108 128.889 72.5672 138.323 79.8699 140.953C86.7676 121.681 72.5394 109.905 72.7947 125.41Z" fill="#FF7B40"/>
<path fill-rule="evenodd" clip-rule="evenodd" d="M98.5659 272.497C98.8656 272.436 92.3342 271.498 94.5871 273.507C95.3751 274.212 94.7536 274.828 93.8991 274.834C91.6128 274.834 89.382 271.304 88.5052 269.562C87.4564 267.47 87.6229 264.845 86.169 263.014C81.1081 256.649 73.1117 234.979 71.963 233.32C70.4869 231.183 51.9248 212.755 50.6263 207.2C48.9615 199.986 50.1213 185.969 52.4576 176.601C53.8449 171.052 76.6133 190.73 77.5566 194.581C78.5 198.432 74.5434 227.932 73.6167 232.144C72.8121 235.795 84.7151 260.25 88.311 263.513C89.4652 264.568 91.7737 265.322 93.1499 266.438C95.2512 268.172 97.0773 270.215 98.5659 272.497C98.1275 272.603 98.0221 271.704 98.5659 272.497Z" fill="#FF7B40"/>
<path fill-rule="evenodd" clip-rule="evenodd" d="M49.9058 184.182C49.9058 185.796 47.0591 196.168 48.3299 204.764C49.8392 215.019 63.3127 226.128 64.023 226.711C64.3948 227.027 59.4061 230.007 58.3129 229.325C55.9656 227.86 45.4387 219.092 41.5099 205.824C39.5011 199.026 43.047 186.063 43.6519 184.62C45.7121 184.229 47.8112 184.082 49.9058 184.182Z" fill="#FF7B40"/>
<path fill-rule="evenodd" clip-rule="evenodd" d="M153.314 307.885C153.231 307.552 151.721 307.152 151.266 307.091C144.108 306.17 134.508 298.418 133.631 301.542C133.531 301.897 133.714 302.391 133.076 302.602C131.339 301.109 128.964 297.43 125.862 295.343C121.423 292.341 118.21 293.063 118.826 294.933C122.272 305.443 118.376 302.752 116.134 295.343C111.545 280.161 106.146 281.426 103.926 287.519C101.84 288.695 101.007 281.454 100.547 280.682C100.4 280.43 100.19 280.221 99.9376 280.075C99.6848 279.93 99.3983 279.853 99.1067 279.853C98.815 279.853 98.5285 279.93 98.2758 280.075C98.023 280.221 97.813 280.43 97.6666 280.682C97.1627 281.259 96.6053 281.787 96.0019 282.258C93.1551 282.086 91.4016 278.929 89.5537 276.354C88.2996 274.606 86.5072 271.665 86.5571 273.818C86.6237 276.753 93.0441 282.93 95.3138 284.916C95.4973 285.09 95.7173 285.221 95.9577 285.299C96.1982 285.378 96.453 285.402 96.7038 285.369C96.9546 285.337 97.195 285.249 97.4076 285.112C97.6202 284.975 97.7997 284.793 97.933 284.578C98.052 284.414 98.1898 284.265 98.3436 284.134C98.5545 284.944 98.6821 285.799 98.8986 286.587C99.2803 288.142 100.241 289.494 101.584 290.366C101.906 290.565 102.271 290.684 102.649 290.71C103.027 290.736 103.405 290.669 103.751 290.515C104.097 290.361 104.4 290.125 104.634 289.827C104.867 289.529 105.024 289.179 105.091 288.806C105.397 287.258 105.397 286.148 111.917 297.685C113.976 301.32 118.188 307.119 123.409 306.902C127.055 306.753 123.132 299.622 123.47 299.133C124.064 299.206 124.308 299.722 124.58 300.105C127.039 303.257 130.03 305.848 133.115 308.345C134.352 309.344 135.657 309.505 136.794 308.85C137.932 308.195 137.177 306.386 138.331 305.276C139.485 304.167 142.771 306.725 144.374 307.274C150.079 309.211 153.386 308.184 153.314 307.885Z" fill="#F47A45"/>
<path fill-rule="evenodd" clip-rule="evenodd" d="M144.241 42.0332C141.283 40.3407 140.539 38.8868 140.756 35.5462C140.878 33.6317 140.756 30.8626 143.164 30.4687C145.7 30.058 147.442 28.2823 149.268 26.6786C150.855 25.2913 153.025 22.9495 155.228 22.7109C156.263 22.6431 157.298 22.86 158.219 23.3379C159.923 24.1315 158.053 25.3023 157.492 26.0015C156.121 27.6996 155.772 30.502 158.047 31.2788C160.539 32.1168 162.858 30.2689 164.567 28.593C168.052 25.1747 174.839 27.0892 177.53 30.7295C178.052 31.4287 179.417 36.2787 176.592 34.9025C173.302 33.2821 159.39 37.0389 156.721 41.3451C154.778 44.4971 146.493 43.3151 144.241 42.0332Z" fill="#F47A45"/>
<path fill-rule="evenodd" clip-rule="evenodd" d="M171.139 18.3436C174.713 18.4269 180.69 22.9939 179.003 27.128C177.854 29.9304 175.54 27.7107 173.925 26.6952C172.094 25.5354 170.263 24.8584 168.071 25.2524C165.296 25.7518 163.759 28.3766 161.278 29.5142C159.109 30.5075 156.6 29.7028 157.871 27.1391C160.185 22.4611 165.968 18.6155 171.139 18.3492C173.154 18.3769 169.541 18.4102 171.139 18.3436Z" fill="#F47A45"/>
<path fill-rule="evenodd" clip-rule="evenodd" d="M165.895 44.7188C162.848 45.6677 161.494 39.8244 163.769 38.5203C166.905 36.7113 169.297 43.6589 165.895 44.7188Z" fill="#F47A45"/>
<path fill-rule="evenodd" clip-rule="evenodd" d="M158.213 41.0232C159.556 37.627 163.107 41.345 161.864 44.1474C160.266 47.7543 156.87 44.4248 158.213 41.0232Z" fill="#F47A45"/>
<path fill-rule="evenodd" clip-rule="evenodd" d="M168.57 37.6546C169.913 34.2641 173.465 37.9765 172.222 40.7789C170.651 44.3858 167.227 41.0452 168.57 37.6546Z" fill="#F47A45"/>
<path fill-rule="evenodd" clip-rule="evenodd" d="M173.424 36.101C174.534 33.3264 177.458 36.3674 176.437 38.6759C175.139 41.6503 172.314 38.8756 173.424 36.101Z" fill="#F47A45"/>
<path fill-rule="evenodd" clip-rule="evenodd" d="M72.1187 178.632C70.0322 177.622 67.9069 176.829 65.9147 175.741C64.6495 175.053 64.3831 174.52 64.6883 173.127C64.7557 172.818 64.7855 172.501 64.7771 172.184C64.7874 170.147 65.0768 168.121 65.6372 166.163C65.7059 165.851 65.8738 165.569 66.1159 165.36C66.3579 165.151 66.6611 165.026 66.9801 165.003C67.6072 165.003 68.0345 165.364 68.2953 166.147C68.8502 167.811 68.5339 169.559 68.4673 171.263C68.4174 172.5 68.2564 172.373 69.4606 172.772C70.0488 172.983 70.7203 173.527 71.2364 173.277C71.8579 172.983 71.4639 172.129 71.5471 171.524C71.7025 170.447 72.3851 169.304 72.8068 169.526C73.5226 169.937 73.678 170.736 73.7002 171.518C73.7531 172.06 73.7326 172.607 73.6392 173.144C73.4283 173.971 73.7113 174.354 74.4882 174.626C75.5592 174.998 76.5803 175.503 77.6346 175.908C78.3893 176.202 78.6002 176.107 78.8055 175.325C79.008 174.724 79.1293 174.099 79.1662 173.466C79.1666 173.103 79.2019 172.74 79.2716 172.384C79.488 171.224 80.0541 170.558 80.6756 170.68C82.1572 170.974 83.0451 172.007 82.7177 173.216C82.2438 175.15 81.664 177.056 80.9808 178.926C80.8439 179.303 80.6121 179.638 80.3078 179.898C80.0035 180.159 79.637 180.336 79.2439 180.414C78.0251 180.785 76.7096 180.668 75.5759 180.086C74.4272 179.553 73.2396 179.104 72.1187 178.632Z" fill="#FF7B40"/>
<path fill-rule="evenodd" clip-rule="evenodd" d="M80.3698 153.567C80.6119 153.206 80.9735 152.943 81.3909 152.823C82.2787 152.645 82.2787 152.168 82.0512 151.452C81.8625 150.844 81.8225 150.198 81.9347 149.571C81.9633 149.252 82.0596 148.944 82.2171 148.665C82.3747 148.387 82.5899 148.145 82.8484 147.956C83.1069 147.768 83.4026 147.637 83.7159 147.572C84.0291 147.506 84.3527 147.509 84.6649 147.579C85.6546 147.76 86.598 148.137 87.4395 148.689C88.3607 149.244 89.1598 150.004 90.3417 150.004C90.7468 150.004 90.9355 150.381 90.9854 150.77C91.0511 151.013 91.0388 151.271 90.9502 151.507C90.8616 151.743 90.7012 151.945 90.4916 152.085C90.2444 152.239 89.9626 152.329 89.6719 152.346C89.3811 152.364 89.0906 152.308 88.8268 152.185C88.2434 151.933 87.6995 151.599 87.212 151.192C86.4728 150.593 85.6479 150.108 84.7648 149.754C84.3375 149.577 84.0656 149.754 84.0434 150.232C84.04 150.916 84.2473 151.584 84.6372 152.146C85.1275 152.909 85.7384 153.588 86.4462 154.155C86.7151 154.326 86.938 154.56 87.0954 154.837C87.2152 155.031 87.2726 155.257 87.2596 155.484C87.2467 155.711 87.1642 155.929 87.0233 156.108C86.887 156.26 86.7082 156.366 86.5103 156.415C86.3123 156.463 86.1044 156.451 85.9135 156.38C85.4377 156.232 84.9909 156.003 84.5928 155.703C84.2476 155.412 83.8761 155.154 83.4829 154.932C82.5895 154.449 82.2066 154.571 81.7183 155.426C81.3187 156.125 81.4464 156.602 82.2066 156.963C83.0444 157.306 83.9118 157.571 84.7981 157.756C85.6915 157.984 86.0744 158.422 86.0189 159.105C85.9635 159.443 85.7897 159.75 85.5284 159.972C85.2671 160.194 84.9354 160.315 84.5928 160.314C84.0051 160.392 83.4081 160.279 82.8892 159.993C82.394 159.68 81.8807 159.396 81.352 159.144C80.8986 158.997 80.4945 158.729 80.1841 158.367C79.8737 158.006 79.6691 157.566 79.5929 157.096C79.4582 156.486 79.458 155.855 79.5921 155.246C79.7263 154.636 79.9917 154.063 80.3698 153.567Z" fill="#FF7B40"/>
<path fill-rule="evenodd" clip-rule="evenodd" d="M91.9557 144.044C92.3441 143.545 92.7104 143.029 93.1321 142.557C93.4207 142.235 93.7148 142.246 94.0089 142.651C94.3869 143.109 94.5937 143.684 94.5937 144.277C94.5937 144.871 94.3869 145.446 94.0089 145.903C93.6188 146.46 93.1944 146.992 92.7381 147.496C91.595 148.694 89.7748 149.444 87.9492 147.701C86.8525 146.674 86.071 145.355 85.6962 143.9C85.5341 143.444 85.5498 142.945 85.7401 142.5C85.9304 142.056 86.2813 141.7 86.7228 141.503C87.6606 141.07 88.493 141.575 88.2766 142.563C87.9658 144.005 88.7149 144.854 89.6805 145.67C90.1078 146.031 90.4518 146.07 90.7903 145.581C91.1289 145.093 91.5672 144.577 91.9612 144.077L91.9557 144.044Z" fill="#FF7B40"/>
<path fill-rule="evenodd" clip-rule="evenodd" d="M87.3068 137.38C86.4355 136.048 86.43 134.05 87.1791 133.023C87.3943 132.726 87.7166 132.524 88.0779 132.46C88.4392 132.396 88.8114 132.474 89.1158 132.679C89.5046 132.911 89.8642 133.189 90.1868 133.506C90.4457 133.791 90.6849 134.093 90.9027 134.411C91.0002 134.43 91.1014 134.419 91.1926 134.38C91.2839 134.34 91.3608 134.273 91.4132 134.189C91.5608 133.983 91.7811 133.841 92.0293 133.792C92.2776 133.742 92.5354 133.789 92.7505 133.922C92.9707 134.089 93.1268 134.326 93.1925 134.594C93.2582 134.861 93.2295 135.144 93.1112 135.393C92.8602 136.068 92.4236 136.659 91.8516 137.097C91.7159 137.201 91.5599 137.276 91.3936 137.317C91.2273 137.358 91.0543 137.364 90.8856 137.334C90.7169 137.304 90.5563 137.24 90.414 137.144C90.2717 137.049 90.1509 136.925 90.0592 136.78C89.6818 136.275 89.4155 135.67 89.0825 135.16C88.9216 134.894 88.744 134.605 88.3722 134.633C88.0004 134.66 87.9782 134.993 87.9005 135.243C87.6841 135.892 87.5287 136.542 87.3068 137.38Z" fill="#FF7B40"/>
<path fill-rule="evenodd" clip-rule="evenodd" d="M77.2457 166.008C76.7407 166.746 76.2635 167.051 75.6975 166.791C75.1315 166.53 75.1703 165.919 75.3423 165.375C75.6827 164.303 76.0267 163.232 76.3745 162.162C76.4298 161.945 76.5178 161.737 76.6353 161.547C76.7733 161.335 76.9794 161.176 77.2195 161.098C77.4597 161.019 77.7195 161.025 77.956 161.114C78.176 161.188 78.3576 161.347 78.4615 161.555C78.5654 161.762 78.5832 162.003 78.5109 162.224C78.3099 163.548 77.8819 164.829 77.2457 166.008Z" fill="#FF7B40"/>
<path fill-rule="evenodd" clip-rule="evenodd" d="M79.7148 162.462C80.1032 161.907 80.4306 161.602 80.7747 161.702C81.1187 161.802 81.2797 162.223 81.3296 162.595C81.4372 163.96 81.0707 165.32 80.2919 166.446C80.186 166.595 80.0514 166.72 79.896 166.816C79.7406 166.911 79.5676 166.974 79.3874 167.001C78.7548 167.123 78.2054 166.702 78.3885 166.102C78.7825 164.782 79.3319 163.494 79.7148 162.462Z" fill="#FF7B40"/>
<path fill-rule="evenodd" clip-rule="evenodd" d="M102.1 96.4764C100.475 96.6041 84.6482 109.661 83.1277 112.053C82.0179 113.762 84.0156 120.377 85.475 128.457C86.9068 127.469 88.2781 126.396 89.5814 125.244C93.9487 129.245 100.769 139.2 101.978 138.373C103.188 137.546 105.069 133.934 114.88 126.72C121.578 121.803 126.989 118.435 126.989 118.435C125.99 116.875 117.755 107.891 115.202 105.255L118.321 102.064C113.709 100.178 102.1 96.4764 102.1 96.4764ZM102.594 126.32L99.3314 129.328L96.5179 126.098L100.025 123.179L102.594 126.32ZM99.1483 122.186L95.7078 125.205L93.1163 122.114L96.7621 118.951L99.1483 122.186ZM106.778 122.741L103.638 125.76C103.255 125.305 100.863 122.336 100.863 122.336L104.265 119.511C104.731 120.061 106.778 122.724 106.778 122.724V122.741ZM103.449 118.723C103.449 118.723 100.724 121.193 100.23 121.57C100.23 121.57 97.9829 118.795 97.5945 118.379L100.874 115.732C100.874 115.732 102.949 118.229 103.427 118.707L103.449 118.723ZM122.971 119.056C120.163 120.366 117.535 122.032 115.152 124.012L105.68 112.769C105.68 112.769 110.796 108.524 112.605 107.109C112.744 106.959 121.711 117.264 122.927 119.04L122.971 119.056Z" fill="#FF7B40"/>
<path fill-rule="evenodd" clip-rule="evenodd" d="M28.156 161.424C28.4849 162.037 28.7135 162.698 28.833 163.383C25.559 164.854 8.10117 158.417 7.12451 159.305C6.28103 160.07 8.05678 160.631 8.05678 160.631C8.35088 162.529 4.13348 176.518 2.69624 177.423C1.72513 176.929 0.310079 176.379 0.937139 177.678C2.04698 179.981 9.13887 197.577 10.221 203.277C9.2665 203.543 7.15781 202.228 7.39087 203.576C7.52405 204.37 11.8746 205.441 12.2853 205.274C15.415 204.015 15.2929 200.064 18.2562 198.948C12.818 194.509 5.03801 182.14 5.15454 182.128C8.52846 185.186 15.9977 192.522 20.6035 197.145C22.4237 193.382 32.3956 196.59 36.6075 190.486C34.3878 180.497 30.298 168.677 30.7752 162.845L30.126 161.607C28.7664 159.471 27.6233 160.475 28.156 161.424ZM30.9917 187.594C29.0605 189.57 3.9892 179.143 5.038 178.821C6.47525 178.377 12.0078 181.041 18.7057 183.299C26.125 185.791 30.9917 187.594 30.9917 187.594Z" fill="#FF7B40"/>
<path fill-rule="evenodd" clip-rule="evenodd" d="M149.774 107.303C153.32 106.626 165.439 104.129 167.958 103.574C169.396 103.258 169.873 102.17 169.684 100.71C169.096 96.1046 166.799 80.2394 158.586 72.6148C157.287 71.4107 154.418 72.9034 153.475 71.9101C152.532 70.9168 154.651 67.0712 151.294 69.6016C146.433 73.253 138.27 81.5935 138.115 82.3648C137.959 83.1361 139.225 86.9318 139.585 88.1193C139.707 88.5244 134.985 92.7418 135.701 95.9326C136.911 101.127 144.535 99.817 144.907 100.805C145.59 102.52 147.898 107.686 149.774 107.303ZM140.895 81.0219C146.061 78.5081 151.494 76.5437 156.433 73.5859C156.849 73.3362 157.321 73.9356 156.899 74.1908C151.905 77.1874 146.416 79.1851 141.189 81.7266C140.773 81.943 140.479 81.2383 140.923 81.0496L140.895 81.0219ZM140.923 91.0771C141.478 92.4311 143.27 96.7262 143.808 98.0802C143.975 98.5019 138.47 98.0801 137.643 95.916C136.716 93.441 140.762 90.622 140.95 91.0826L140.923 91.0771ZM148.769 104.179C151.133 103.33 153.658 102.963 156.211 101.277C157.681 100.3 151.25 84.196 150.107 82.7255C148.963 81.255 143.509 84.5789 140.118 85.0784C139.63 85.1505 139.447 83.7188 139.929 83.6467C143.448 83.125 150.168 79.7622 151.25 80.75C152.332 81.7377 158.081 96.8427 158.63 101.01C158.819 102.436 151.089 104.939 149.507 105.505C149.052 105.677 148.331 104.356 148.797 104.179H148.769Z" fill="#FF7B40"/>
<path fill-rule="evenodd" clip-rule="evenodd" d="M24.2768 95.5386C20.9917 102.409 17.3181 107.037 12.8677 114.073C8.79454 113.518 8.19522 116.248 10.881 117.708C12.3793 118.523 17.1849 122.147 18.7443 119.656C19.7265 118.063 16.8409 117.353 17.8841 115.372C19.5212 112.275 27.8117 102.17 29.1102 99.0957C45.9187 103.696 53.2715 82.5146 40.6969 75.3118C29.7705 69.0523 16.0085 82.4092 24.2768 95.5386ZM33.4441 77.3039C33.766 78.0919 28.7384 81.2494 28.0891 82.0485C27.3233 82.9808 26.6463 87.0428 25.2091 86.8209C20.6865 86.044 31.9514 73.6637 33.4441 77.3039ZM35.6139 77.0098C36.7237 75.5948 38.4828 77.3206 37.4562 78.6358C37.0567 79.1352 34.5429 78.3416 35.6083 77.0098H35.6139Z" fill="#FF7B40"/>
<path fill-rule="evenodd" clip-rule="evenodd" d="M56.5761 88.9127C55.2887 88.269 47.2146 82.8474 49.8505 87.8806C50.472 89.0292 43.1914 103.463 41.2381 105.272C39.5733 106.776 22.1599 112.292 24.3796 116.736C27.354 122.702 39.4901 129.655 46.5487 129.1C51.1601 128.739 47.9082 111.759 47.764 108.529C47.492 102.547 53.9291 93.4187 54.7504 91.4265C54.7504 91.4265 59.8557 90.7828 56.5761 88.9127C57.3363 89.2956 53.2965 87.0426 56.5761 88.9127ZM39.0795 109.55C40.1893 110.81 28.536 116.725 28.2807 116.476C26.8102 115.088 37.8919 108.202 39.0795 109.55ZM41.51 110.438C41.4153 110.573 41.2756 110.67 41.1158 110.712C40.9561 110.753 40.7868 110.736 40.6384 110.664C40.49 110.592 40.3722 110.469 40.3062 110.318C40.2401 110.167 40.2302 109.997 40.2781 109.839C40.439 108.03 42.8085 109.145 41.51 110.438Z" fill="#FF7B40"/>
<path fill-rule="evenodd" clip-rule="evenodd" d="M79.5313 284.9C78.2772 286.126 78.316 287.563 78.488 289.089C77.8117 289.062 77.1501 288.884 76.5514 288.568C73.6269 287.147 70.6914 285.793 67.8225 284.217C62.5951 281.376 58.1668 277.492 53.561 273.846C51.308 272.07 49.0328 270.311 46.7688 268.541C46.003 267.941 45.2649 267.314 44.4991 266.721C44.2531 266.53 44.052 266.287 43.9101 266.01C43.7682 265.733 43.6889 265.428 43.6778 265.117C43.6057 264.107 43.8554 263.868 44.8543 263.657C46.0196 263.408 46.8908 263.94 47.7232 264.579C49.0439 265.589 50.3387 266.643 51.6077 267.742C54.8595 270.588 58.4942 272.902 62.1512 275.205C63.6605 276.16 65.059 277.275 66.5572 278.246C70.2332 280.556 74.0916 282.563 78.094 284.245L79.5313 284.9Z" fill="#FF7B40"/>
<path fill-rule="evenodd" clip-rule="evenodd" d="M82.0508 285.888C81.901 285.832 80.2529 284.961 79.9976 285.405C79.8811 285.605 78.405 287.941 79.5315 289.212C79.8533 289.578 80.5303 289.633 81.0908 289.733C81.1185 289.739 80.7523 286.831 82.0508 285.888Z" fill="#FF7B40"/>
<path fill-rule="evenodd" clip-rule="evenodd" d="M95.1811 287.641C92.2567 285.377 87.1237 283.241 83.0561 285.976C81.6688 287.458 82.2626 289.644 82.1904 289.7C82.8009 292.647 86.2136 295.41 88.1725 295.632C92.2512 296.098 97.4064 298.013 97.5673 297.719C97.7282 297.424 94.937 295.582 93.7716 294.888C93.4442 294.694 93.0891 294.578 92.9226 294.256C93.0003 293.995 95.1423 293.928 96.0302 294.256C97.5284 294.794 98.9384 295.551 100.214 296.503C100.359 296.609 100.508 296.786 100.725 296.642C100.941 296.498 99.8036 291.243 95.1811 287.641ZM91.2967 287.641C91.0914 287.974 90.7418 287.919 90.4699 287.791C89.755 287.494 89.011 287.273 88.2502 287.131C87.1155 286.833 85.918 286.88 84.8097 287.264L84.5877 287.342C84.3213 287.425 83.9995 287.514 83.8497 287.231C83.6998 286.948 83.9717 286.637 84.2381 286.504C84.6188 286.311 85.0187 286.158 85.4312 286.049C86.8906 285.649 89.8706 286.132 90.9804 286.936C91.1358 287.131 91.5409 287.247 91.2967 287.647V287.641ZM93.9104 289.162C93.6107 289.517 93.411 289.028 93.2389 289.006C93.0392 288.851 92.9115 288.768 92.8005 288.668C92.6895 288.568 92.4509 288.324 92.6563 288.113C92.8616 287.902 93.0114 288.035 93.1779 288.113C93.3098 288.187 93.4326 288.277 93.5441 288.379C93.7605 288.59 94.2655 288.757 93.9104 289.145V289.162Z" fill="#F47A45"/>
<path fill-rule="evenodd" clip-rule="evenodd" d="M192.014 24.1423C190.099 23.5874 188.59 24.6972 187.846 26.362C186.27 29.8913 176.659 44.6078 173.174 48.2758C172.875 48.5921 172.703 48.5699 172.425 48.3646C171.576 47.7264 171.576 47.7264 170.81 48.3257C170.589 48.4787 170.378 48.6455 170.178 48.8251C169.462 49.5576 168.768 49.4855 167.797 49.1415C152.442 43.5922 148.059 59.2965 153.78 65.7391C159.501 72.1818 172.497 70.7334 173.579 58.0313C173.629 57.4431 175.66 55.5952 176.271 55.4731C176.532 55.4231 176.271 54.846 176.032 54.0248C183.246 44.6688 192.413 32.3828 194.25 28.2875C194.999 26.6672 193.595 24.6195 192.014 24.1423ZM173.496 52.6264C173.879 52.5043 174.206 52.7207 174.306 53.1813C174.316 53.2828 174.316 53.385 174.306 53.4865C173.891 53.9402 173.34 54.2476 172.736 54.3632C172.497 54.2689 172.431 54.0247 172.364 53.8083C172.236 53.3644 172.686 52.8927 173.496 52.6264ZM171.831 50.3013C171.559 50.6229 171.201 50.8614 170.799 50.9894C170.762 50.9945 170.724 50.9897 170.689 50.9753C170.655 50.9609 170.624 50.9375 170.602 50.9075C170.579 50.8775 170.565 50.8421 170.561 50.8047C170.556 50.7674 170.562 50.7296 170.577 50.6952C170.681 50.4943 170.829 50.3193 171.009 50.1829C171.19 50.0466 171.399 49.9524 171.62 49.9073C171.759 49.8795 171.87 50.0238 171.826 50.3013H171.831ZM153.891 59.6905C153.547 54.4132 157.853 51.2945 159.318 51.006C161.826 50.5288 169.54 50.5287 170.205 57.3154C171.515 70.1397 154.462 68.5582 153.885 59.6905H153.891ZM172.592 50.8617C172.802 50.7729 172.941 50.9228 173.058 51.0892C173.122 51.1583 173.169 51.2415 173.195 51.3321C173.221 51.4228 173.225 51.5183 173.208 51.6109C172.809 52.0138 172.295 52.2833 171.737 52.3822C171.454 52.2823 171.271 52.0492 171.432 51.7662C171.709 51.3458 172.116 51.028 172.592 50.8617Z" fill="#FF7B40"/>
<path fill-rule="evenodd" clip-rule="evenodd" d="M156.682 56.2001C157.081 55.3578 157.668 54.6176 158.396 54.036C158.684 53.7877 159.018 53.5991 159.379 53.481C159.706 53.3867 160.078 53.2424 160.311 53.6031C160.544 53.9638 160.216 54.158 160.011 54.38C159.186 55.1814 158.506 56.1202 158.002 57.1546C157.704 57.556 157.573 58.0571 157.636 58.553C157.742 58.9526 157.514 59.2078 157.114 59.2966C156.946 59.3413 156.767 59.3225 156.611 59.2437C156.456 59.1649 156.335 59.0317 156.271 58.8693C156.118 58.622 156.028 58.3416 156.006 58.0519C155.985 57.7621 156.034 57.4715 156.149 57.2046C156.304 56.8328 156.515 56.5053 156.682 56.2001Z" fill="#FF7B40"/>
<path fill-rule="evenodd" clip-rule="evenodd" d="M158.326 61.9105C158.093 62.3267 157.71 62.1935 157.399 62.1158C157.295 62.103 157.195 62.0663 157.107 62.0086C157.018 61.951 156.945 61.8739 156.891 61.7833C156.838 61.6927 156.805 61.5911 156.797 61.4861C156.789 61.3812 156.805 61.2758 156.844 61.178C156.865 61.0762 156.909 60.9805 156.972 60.8983C157.036 60.816 157.117 60.7496 157.211 60.7039C157.304 60.6583 157.407 60.6348 157.511 60.6353C157.614 60.6357 157.717 60.66 157.81 60.7064C158.359 60.9228 158.354 61.4222 158.326 61.9105Z" fill="#FF7B40"/>
<path fill-rule="evenodd" clip-rule="evenodd" d="M79.6422 50.7399C79.3109 50.976 78.9113 51.0968 78.5047 51.0839C77.0975 51.013 75.6973 50.8406 74.315 50.5679C74.1814 50.5617 74.0507 50.5268 73.932 50.4653C73.8132 50.4039 73.7091 50.3175 73.6268 50.2121C73.5446 50.1067 73.4862 49.9847 73.4555 49.8545C73.4249 49.7243 73.4227 49.5891 73.4493 49.458C73.4992 49.1902 73.6341 48.9457 73.834 48.7607C74.034 48.5757 74.2883 48.4602 74.5592 48.4314C76.109 48.2238 77.6789 48.2126 79.2316 48.3981C79.502 48.4097 79.7568 48.5275 79.9408 48.726C80.1247 48.9245 80.2228 49.1876 80.2138 49.458C80.2236 49.7013 80.1771 49.9435 80.078 50.1658C79.9789 50.3882 79.8297 50.5846 79.6422 50.7399Z" fill="#F47A45"/>
<path fill-rule="evenodd" clip-rule="evenodd" d="M75.4872 44.1528C74.8601 44.4413 74.2442 44.7576 73.6115 45.0129C72.7237 45.3736 72.1632 45.307 71.9967 44.8409C71.7748 44.2138 72.252 43.7643 72.7625 43.4424C74.0444 42.6212 75.3485 41.8221 76.647 41.084C77.4294 40.6456 78.2673 40.9009 78.506 41.5335C78.7446 42.1661 78.4061 42.8265 77.6181 43.2371C76.9244 43.6034 76.203 43.9031 75.4927 44.2305L75.4872 44.1528Z" fill="#F47A45"/>
<path fill-rule="evenodd" clip-rule="evenodd" d="M69.0378 41.4559C68.5716 41.7889 68.1166 41.9276 67.7059 41.6501C67.512 41.5141 67.377 41.3094 67.3286 41.0774C67.2802 40.8455 67.3218 40.6039 67.4451 40.4016C67.9411 39.3611 68.5616 38.3847 69.293 37.4938C69.4466 37.2773 69.6726 37.1229 69.9302 37.0588C70.1878 36.9946 70.4598 37.0249 70.697 37.1442C70.8198 37.2071 70.9283 37.2947 71.0156 37.4017C71.1028 37.5086 71.167 37.6324 71.204 37.7654C71.2411 37.8983 71.2501 38.0375 71.2307 38.1742C71.2112 38.3108 71.1636 38.4419 71.091 38.5592C70.5646 39.6276 69.8716 40.6055 69.0378 41.4559Z" fill="#F47A45"/>
<path fill-rule="evenodd" clip-rule="evenodd" d="M52.4521 58.6141C52.3078 58.8416 52.4521 59.0692 52.4521 59.3078C52.4395 59.5266 52.3597 59.7361 52.2237 59.9079C52.0877 60.0797 51.9019 60.2054 51.6919 60.2678C51.4821 60.3389 51.2549 60.3406 51.0441 60.2726C50.8332 60.2047 50.6498 60.0707 50.521 59.8904C50.0701 59.2461 49.6551 58.5773 49.278 57.8872C49.1942 57.7261 49.1662 57.5417 49.1983 57.363C49.2305 57.1843 49.3209 57.0213 49.4555 56.8994C49.5649 56.7838 49.7051 56.7021 49.8595 56.6637C50.0139 56.6254 50.1761 56.6321 50.3268 56.683C50.8565 56.8572 51.3183 57.1929 51.6475 57.643C51.8845 58.008 52.1598 58.3466 52.4688 58.653L52.4521 58.6141Z" fill="#F47A45"/>
<path fill-rule="evenodd" clip-rule="evenodd" d="M75.4089 54.7353C75.5927 54.9026 75.7127 55.1286 75.7481 55.3747C75.7835 55.6207 75.7323 55.8714 75.6031 56.0838C75.5541 56.2035 75.4796 56.3111 75.3846 56.399C75.2897 56.4869 75.1766 56.553 75.0535 56.5926C74.9303 56.6323 74.8 56.6445 74.6716 56.6285C74.5432 56.6125 74.4198 56.5686 74.3102 56.4999C73.7336 56.2412 73.1333 56.0386 72.5178 55.8951C72.2809 55.8515 72.0679 55.7233 71.9185 55.5344C71.7954 55.3793 71.7204 55.1916 71.7027 54.9944C71.685 54.7972 71.7252 54.5991 71.8186 54.4245C71.8935 54.266 72.0099 54.1308 72.1555 54.0331C72.301 53.9353 72.4703 53.8789 72.6454 53.8696C73.6265 53.9114 74.5794 54.2099 75.4089 54.7353Z" fill="#F47A45"/>
<path d="M68.4899 46.0895C63.6343 40.5403 53.4293 45.4236 53.7068 54.8073C53.5736 54.8795 53.507 54.7685 53.4182 54.713C53.2259 54.5367 52.9744 54.439 52.7135 54.439C52.4526 54.439 52.2011 54.5367 52.0088 54.713C51.8197 54.8935 51.7004 55.135 51.672 55.3949C51.6436 55.6548 51.7078 55.9164 51.8534 56.1336C52.0476 56.5609 52.2807 56.9771 52.5026 57.3988C52.6414 57.6652 52.9077 57.8816 52.8245 58.2256C53.1907 58.6474 53.5625 59.0746 54.2062 58.9748C54.9387 58.8582 55.0997 58.209 55.3161 57.6707C69.3389 63.675 72.8405 51.0838 68.4899 46.0895ZM64.2891 56.3833C63.8397 56.4943 63.3902 56.5886 63.2126 56.0281C63.035 55.4677 63.3957 55.3068 63.8119 55.1847C64.4087 54.9554 64.9694 54.6415 65.4767 54.2524C65.8876 54.0128 66.2299 53.6715 66.4709 53.2614C66.7119 52.8513 66.8435 52.3862 66.8529 51.9106C66.863 51.5957 66.8982 51.2821 66.9583 50.9728C67.0138 50.712 67.0859 50.4179 67.4355 50.3846C67.7851 50.3513 67.8684 50.6898 67.8961 50.9395C68.0571 52.5044 67.8129 53.9305 66.4977 54.9904C66.2813 55.1625 66.0538 55.3234 65.8318 55.4843C65.3983 55.9099 64.8694 56.2257 64.2891 56.4055V56.3833Z" fill="#F47A45"/>
<path fill-rule="evenodd" clip-rule="evenodd" d="M211.048 82.8419C212.279 83.247 208.395 95.8881 211.602 103.33C212.368 105.105 212.157 105.605 213.944 106.265C214.888 106.609 217.856 106.864 218.273 106.537C217.102 104.456 217.013 100.81 218.828 98.5351C212.551 95.3665 212.551 84.1071 214.033 83.702C214.732 83.5245 213.672 88.3911 215.515 92.2201C217.596 96.5373 222.59 99.9113 223.284 100.311C223.722 100.561 224.393 100.555 224.599 101.01C224.804 101.465 224.488 101.937 224.449 102.414C224.378 103.441 224.378 104.472 224.449 105.499C224.488 106.165 224.399 106.376 223.755 106.359C222.353 106.349 220.987 106.804 219.871 107.652C219.033 108.207 212.884 108.257 211.403 106.382C207.135 100.91 209.816 82.4368 211.048 82.8419Z" fill="#FF7B40"/>
<path fill-rule="evenodd" clip-rule="evenodd" d="M225.586 100.81L225.647 105.605C225.647 105.605 248.765 116.958 257.739 138.057L267.028 140.06L267.583 129.011C267.583 129.011 264.897 116.598 225.586 100.81Z" fill="#FF7B40"/>
<path fill-rule="evenodd" clip-rule="evenodd" d="M60.2201 81.893C55.4144 85.5389 51.702 74.6014 57.7229 74.335C62.5507 74.1241 63.2499 79.6068 60.2201 81.893Z" fill="#F47A45"/>
<path fill-rule="evenodd" clip-rule="evenodd" d="M52.119 73.7024C48.6341 76.3438 45.9483 68.4195 50.31 68.2253C53.8005 68.0755 54.3054 72.0487 52.119 73.7024Z" fill="#F47A45"/>
<path fill-rule="evenodd" clip-rule="evenodd" d="M42.9623 67.948C40.6428 69.7071 38.8504 64.4298 41.7582 64.3021C44.0777 64.1967 44.4162 66.8437 42.9623 67.948Z" fill="#F47A45"/>
<path fill-rule="evenodd" clip-rule="evenodd" d="M57.0394 69.0744C55.3192 70.3785 53.9929 66.4663 56.146 66.3719C57.8663 66.2998 58.116 68.2587 57.0394 69.0744Z" fill="#F47A45"/>
<path fill-rule="evenodd" clip-rule="evenodd" d="M52.1959 81.4381C49.6322 83.3803 47.6456 77.5536 50.8641 77.4038C53.4334 77.2872 53.8108 80.2172 52.1959 81.4381Z" fill="#F47A45"/>
<path fill-rule="evenodd" clip-rule="evenodd" d="M47.5409 66.0221C46.2368 67.0099 45.2268 64.0411 46.8639 63.9689C48.1735 63.9134 48.3622 65.4006 47.5409 66.0221Z" fill="#F47A45"/>
<path fill-rule="evenodd" clip-rule="evenodd" d="M244.37 66.4051C245.115 67.8572 245.459 69.4814 245.369 71.1109C245.308 71.8286 245.049 72.5154 244.621 73.0946C244.193 73.6737 243.612 74.1224 242.944 74.3905C240.913 75.356 238.926 75.4504 237.106 74.507C234.564 73.1863 234.132 68.2142 236.329 65.9446C238.443 63.7748 242.577 63.8913 244.37 66.4051Z" fill="#F47A45"/>
<path fill-rule="evenodd" clip-rule="evenodd" d="M252.103 78.913C254.977 82.5366 252.103 85.3944 250.837 85.9993C249.034 86.8539 247.275 86.9427 245.66 86.1047C243.401 84.9339 243.018 80.5222 244.966 78.5079C246.914 76.4935 250.515 76.6822 252.103 78.913Z" fill="#FF7B40"/>
<path fill-rule="evenodd" clip-rule="evenodd" d="M147.492 64.4019C144.717 53.8584 137.342 42.377 135.511 31.0233C138.579 29.3142 145.738 25.8515 145.954 17.7052C146.06 13.7653 143.319 14.7475 142.891 16.7564C142.103 20.4632 140.266 22.2223 134.762 24.2533C131.371 25.4441 127.836 26.172 124.251 26.4175C121.179 26.4697 118.124 26.9003 115.156 27.6994C110.378 28.9646 102.859 31.5838 99.8294 32.5772C98.2256 33.1321 96.8217 32.9933 93.9805 34.1753C90.2348 35.7347 85.7843 37.2274 78.7091 35.213C76.5837 34.7081 76.5227 35.5959 78.254 37.0165C80.3128 38.6813 88.3702 40.4626 93.9749 37.6103C91.6498 48.5699 82.9764 56.6884 81.8999 58.0036C80.6347 59.5518 82.0275 60.4952 83.1928 59.4631C84.0585 58.6973 89.6521 55.4121 93.3812 51.1947C93.975 55.4121 90.9062 64.1411 90.9728 64.929C91.0672 66.0056 91.8718 66.3996 92.8041 65.8113C93.3923 65.4396 100.334 50.2292 100.95 35.2907C105.24 34.4195 108.691 33.2597 109.391 33.1931C108.974 50.7175 99.6962 63.2643 102.31 64.0689C102.992 64.5794 110.478 57.9648 112.792 47.2936C114.363 52.6875 114.324 64.4962 114.629 65.6671C115.212 67.8868 117.348 66.6382 117.404 66.0278C120.078 44.9408 116.932 31.2897 117.559 30.7181C119.118 29.2976 125.395 29.0534 125.611 29.9857C126.166 32.3441 123.946 63.6194 124.074 64.7182C124.185 65.6338 124.657 66 125.506 65.6283C126.221 65.2932 126.806 64.7315 127.17 64.0301C129.357 60.1956 130.228 53.3145 133.008 45.8897C133.563 46.4446 139.667 60.5618 144.362 66.0333C147.963 70.2507 148.035 66.5106 147.492 64.4019Z" fill="#FF7B40"/>
<path fill-rule="evenodd" clip-rule="evenodd" d="M100.449 24.8861C103.168 28.3155 100.449 31.0235 99.2499 31.5951C98.5016 32.005 97.6653 32.2281 96.8122 32.2455C95.9591 32.2629 95.1144 32.074 94.35 31.695C92.2135 30.5851 91.8528 26.4121 93.6952 24.481C95.5375 22.5499 98.9447 22.7829 100.449 24.8861Z" fill="#FF7B40"/>
<path fill-rule="evenodd" clip-rule="evenodd" d="M131.072 17.9551C133.796 21.3846 131.072 24.087 129.873 24.6586C129.125 25.0689 128.288 25.2923 127.435 25.3097C126.582 25.3271 125.737 25.138 124.973 24.7585C122.837 23.6486 122.476 19.4756 124.318 17.5445C126.161 15.6134 129.584 15.8409 131.072 17.9551Z" fill="#FF7B40"/>
<path fill-rule="evenodd" clip-rule="evenodd" d="M114.448 20.752C117.167 24.1814 114.448 26.8839 113.249 27.4555C112.501 27.8653 111.664 28.0885 110.811 28.1059C109.958 28.1232 109.113 27.9344 108.349 27.5553C106.213 26.4455 105.852 22.2725 107.694 20.3414C109.536 18.4102 112.938 18.6378 114.448 20.752Z" fill="#FF7B40"/>
<path fill-rule="evenodd" clip-rule="evenodd" d="M257.917 90.2557C258.493 91.379 258.759 92.6355 258.688 93.8959C258.641 94.4515 258.44 94.983 258.109 95.4316C257.778 95.8802 257.329 96.2284 256.812 96.4375C256.122 96.8145 255.351 97.0195 254.565 97.035C253.778 97.0504 253 96.8759 252.295 96.5263C250.325 95.4997 249.992 91.6541 251.69 89.9005C253.389 88.147 256.529 88.3079 257.917 90.2557Z" fill="#F47A45"/>
<path fill-rule="evenodd" clip-rule="evenodd" d="M225.487 94.9226C224.538 96.9314 229.072 97.2089 232.662 99.0512C236.375 100.96 238.655 103.707 239.782 102.087C240.981 100.366 249.299 91.0382 244.31 86.0938C238.772 80.6278 227.44 90.8106 225.487 94.9226Z" fill="#FF7B40"/>
<path fill-rule="evenodd" clip-rule="evenodd" d="M231.97 71.9711C235.266 72.7147 237.835 77.1763 235.921 81.6545C234.6 84.7398 225.744 88.9406 223.208 93.5964C222.253 95.3444 214.79 86.3824 218.813 82.5368C222.836 78.6912 224.234 70.2342 231.97 71.9711Z" fill="#F47A45"/>
<path fill-rule="evenodd" clip-rule="evenodd" d="M249.955 97.0811C255.948 98.9678 254.894 106.232 252.73 111.065C252.324 111.964 249.566 108.668 246.348 106.837C243.129 105.005 239.606 104.567 241.437 102.431C243.379 100.15 246.043 95.8492 249.955 97.0811Z" fill="#F47A45"/>
<path fill-rule="evenodd" clip-rule="evenodd" d="M19.3732 219.086C20.3332 222.837 24.3176 234.391 25.322 236.844C25.7326 237.854 26.171 238.852 26.5983 239.857C27.2593 236.824 27.6456 233.737 27.7525 230.634C28.424 213.315 13.6575 207.228 13.6575 207.228C13.6575 207.228 14.046 211.162 13.7352 219.569C13.0138 238.864 31.354 247.271 28.818 244.38C27.8635 243.281 17.492 229.924 19.3732 219.086Z" fill="#FF7B40"/>
<path fill-rule="evenodd" clip-rule="evenodd" d="M29.6437 207.372C31.8024 208.753 35.7478 212.571 37.0353 213.748C37.5902 214.23 38.1007 214.735 38.6279 215.229C36.5117 215.171 34.407 214.898 32.3462 214.414C20.9592 211.789 21.1035 199.836 21.1035 199.836C23.7012 200.78 26.3621 201.54 29.0666 202.111C41.7465 205.052 42.1183 220.057 40.9474 217.649C40.498 216.772 35.5647 207.222 29.6437 207.372Z" fill="#F47A45"/>
<path fill-rule="evenodd" clip-rule="evenodd" d="M38.3911 231.622C40.2557 234.857 46.9314 243.414 54.6614 245.939C53.1909 243.408 52.2752 240.945 51.3319 236.555C47.8692 220.285 29.3792 218.393 29.3792 218.393C31.064 222.887 31.9631 227.638 32.0373 232.438C32.3147 247.465 50.3497 249.241 57.153 249.962C53.1354 248.597 39.7451 241.61 38.3911 231.622Z" fill="#FF7B40"/>
<path fill-rule="evenodd" clip-rule="evenodd" d="M38.3579 254.296C40.733 255.517 45.2722 259.002 46.765 260.078C47.3809 260.517 47.9858 260.977 48.5962 261.432C46.4635 261.492 44.3301 261.346 42.2257 260.994C30.4836 259.079 28.5913 247.459 28.5913 247.459C31.3242 248.23 34.1048 248.819 36.9151 249.224C49.9946 251.377 52.8857 265.927 51.3431 263.652C50.716 262.825 46.1102 253.752 38.3579 254.296Z" fill="#F47A45"/>
<path fill-rule="evenodd" clip-rule="evenodd" d="M73.0111 70.7504L73.4773 76.183C74.9016 76.4223 76.3005 76.7938 77.6558 77.2929L77.3672 71.9656C75.9654 71.3983 74.5042 70.9906 73.0111 70.7504Z" fill="#FF7B40"/>
<path fill-rule="evenodd" clip-rule="evenodd" d="M71.7308 64.4741C70.4781 64.5226 69.2422 64.7795 68.0739 65.2344L68.4346 69.8346C69.6872 69.7183 70.9488 69.7388 72.197 69.8957L71.7308 64.4741Z" fill="#FF7B40"/>
<path fill-rule="evenodd" clip-rule="evenodd" d="M77.3176 71.1607L77.0069 65.4562C75.8703 64.9636 74.6652 64.6473 73.4332 64.5183C73.1002 64.485 72.7839 64.4684 72.4731 64.4573L72.9504 70.0065C74.4434 70.233 75.9076 70.62 77.3176 71.1607Z" fill="#FF7B40"/>
<path fill-rule="evenodd" clip-rule="evenodd" d="M82.717 74.2183L82.6615 69.6181C82.5228 69.4904 82.384 69.3628 82.2509 69.2296C80.9606 67.8475 79.4443 66.6953 77.7671 65.8224L78.0778 71.477C79.7332 72.1925 81.2918 73.1135 82.717 74.2183Z" fill="#FF7B40"/>
<path fill-rule="evenodd" clip-rule="evenodd" d="M78.4163 77.5926C79.9551 78.2267 81.4212 79.0248 82.789 79.9732L82.7335 75.1731C81.3298 74.0187 79.7814 73.0524 78.1277 72.2986L78.4163 77.5926Z" fill="#FF7B40"/>
<path fill-rule="evenodd" clip-rule="evenodd" d="M92.3286 76.5436L92.1233 72.4649C91.1303 72.5574 90.1309 72.5574 89.1378 72.4649C88.877 72.4649 88.6218 72.3983 88.3665 72.3595L88.4498 76.7656C89.7469 76.8286 91.0471 76.7542 92.3286 76.5436Z" fill="#FF7B40"/>
<path fill-rule="evenodd" clip-rule="evenodd" d="M101.053 74.2129L100.143 70.5948C99.6212 70.8224 98.0563 71.1498 97.0353 71.4716L97.5458 75.2729C98.8332 74.8456 100.559 74.4405 101.053 74.2129Z" fill="#FF7B40"/>
<path fill-rule="evenodd" clip-rule="evenodd" d="M93.0996 77.165L93.3826 82.8252C94.8361 82.6248 96.2746 82.3282 97.6888 81.9373L96.923 76.2494C95.6679 76.6302 94.3911 76.936 93.0996 77.165Z" fill="#FF7B40"/>
<path fill-rule="evenodd" clip-rule="evenodd" d="M96.846 75.5004L96.3354 71.6881C95.203 72.012 94.0472 72.2476 92.8783 72.3929L93.0836 76.4271C94.3551 76.1935 95.6115 75.8841 96.846 75.5004Z" fill="#FF7B40"/>
<path fill-rule="evenodd" clip-rule="evenodd" d="M83.7782 75.084C84.9003 75.9937 86.2682 76.5482 87.707 76.6766L87.6182 72.1928C86.0875 71.8661 84.6488 71.2026 83.4064 70.2506L83.4619 74.8176L83.7782 75.084Z" fill="#FF7B40"/>
<path fill-rule="evenodd" clip-rule="evenodd" d="M98.4171 81.7043C99.5965 81.3646 100.755 80.9551 101.885 80.4779L100.864 74.9287C100.276 75.1895 98.9054 75.5891 97.6458 75.9942L98.4171 81.7043Z" fill="#FF7B40"/>
<path fill-rule="evenodd" clip-rule="evenodd" d="M87.8276 82.7533L87.7221 77.3983C86.1832 77.275 84.711 76.7169 83.477 75.7891L83.5269 80.4948C83.8488 80.7334 84.1651 80.9831 84.4869 81.2495C85.4576 82.0215 86.606 82.5385 87.8276 82.7533Z" fill="#FF7B40"/>
<path fill-rule="evenodd" clip-rule="evenodd" d="M88.8376 83.6353L88.5878 83.602L88.6988 89.3122C89.5541 89.7369 90.479 90.0038 91.429 90.1002C91.9571 90.1451 92.488 90.1451 93.0161 90.1002L92.6887 83.5798C91.4101 83.7274 90.1199 83.7459 88.8376 83.6353Z" fill="#FF7B40"/>
<path fill-rule="evenodd" clip-rule="evenodd" d="M93.4221 83.5133L93.7495 90.0448C95.4343 89.7767 97.0636 89.233 98.5717 88.4355L97.7893 82.631C96.3544 83.0204 94.8956 83.3152 93.4221 83.5133Z" fill="#FF7B40"/>
<path fill-rule="evenodd" clip-rule="evenodd" d="M98.5119 82.4258L99.2721 88.0638C100.635 87.3026 101.924 86.4165 103.123 85.4168L102.069 81.205C100.907 81.6773 99.7192 82.0848 98.5119 82.4258Z" fill="#FF7B40"/>
<path fill-rule="evenodd" clip-rule="evenodd" d="M102.567 65.9722C101.519 65.5394 90.0427 73.1196 83.3226 64.9956C76.7857 57.0935 64.1612 62.8147 63.9836 63.2698C63.8782 63.9745 65.2711 83.8518 65.5985 85.4167C65.7594 86.1769 73.667 82.1759 84.4269 91.2711C89.9761 95.9823 97.0237 93.6239 107.223 87.2978L102.567 65.9722ZM91.2969 91.2045C89.2551 90.9942 87.3416 90.1098 85.8586 88.6907C81.5358 84.6731 76.1364 83.3745 72.3685 82.9861C71.2135 82.857 70.0502 82.8181 68.8891 82.8696L68.3342 82.9084L66.8803 64.5572L67.2077 64.3907C69.1917 63.5004 71.3794 63.163 73.5394 63.414C76.991 63.7692 80.1984 65.4617 83.0507 68.4527C84.6941 70.1384 86.8962 71.1664 89.2436 71.3439C94.3101 71.8655 100.214 69.3351 100.264 69.3073L100.886 69.0021L104.36 85.7996L104.116 86.0215C103.86 86.2602 97.6452 91.8593 91.2969 91.2045Z" fill="#FF7B40"/>
<path fill-rule="evenodd" clip-rule="evenodd" d="M92.3674 77.2595C91.0827 77.4578 89.7813 77.5266 88.4829 77.4648L88.5883 82.8809C89.9433 83.0391 91.3121 83.0391 92.667 82.8809L92.3674 77.2595Z" fill="#FF7B40"/>
<path fill-rule="evenodd" clip-rule="evenodd" d="M68.9724 76.638L69.3775 81.7377C70.419 81.7232 71.4604 81.7714 72.4962 81.882L73.2342 81.9653L72.7903 76.8212C71.5265 76.6373 70.248 76.576 68.9724 76.638Z" fill="#FF7B40"/>
<path fill-rule="evenodd" clip-rule="evenodd" d="M84.0212 81.8375L83.5495 81.4602L83.5994 85.5611C84.6789 86.239 85.6932 87.0155 86.6293 87.8806C87.0354 88.2574 87.4757 88.5955 87.9445 88.8906L87.839 83.4857C86.4452 83.2761 85.1297 82.7082 84.0212 81.8375Z" fill="#FF7B40"/>
<path fill-rule="evenodd" clip-rule="evenodd" d="M72.7238 76.0554L72.2577 70.6228C71.0083 70.4573 69.7442 70.435 68.4897 70.5562L68.9115 75.8889C70.1847 75.8265 71.4609 75.8822 72.7238 76.0554Z" fill="#FF7B40"/>
<path fill-rule="evenodd" clip-rule="evenodd" d="M73.5396 76.9487L73.9779 82.0762C75.3247 82.2841 76.6545 82.5901 77.9567 82.9918L77.6904 78.1085C76.3474 77.5889 74.9573 77.2005 73.5396 76.9487Z" fill="#FF7B40"/>
<path fill-rule="evenodd" clip-rule="evenodd" d="M78.4615 78.4138L78.7224 83.2361C80.1553 83.7235 81.5379 84.3479 82.851 85.1006L82.801 80.8888C81.4511 79.905 79.9956 79.0748 78.4615 78.4138Z" fill="#FF7B40"/>
<path fill-rule="evenodd" clip-rule="evenodd" d="M60.2211 258.835C59.3998 257.908 56.0925 261.21 57.2967 263.014C61.3199 269.046 79.3714 280.388 80.6755 280.216C82.4512 280.011 86.48 279.772 86.5688 279.567C86.6576 279.362 83.3169 274.789 82.8563 274.573C74.3328 270.699 62.1744 261.06 60.2211 258.835ZM83.6388 276.382C83.7942 276.57 84.0272 277.048 84.1937 277.231C84.4601 277.525 84.7486 277.963 84.6709 278.341C84.3602 279.512 83.5278 279.667 82.3958 279.628C81.8425 279.689 81.2842 279.689 80.731 279.628C80.7754 279.217 81.2859 278.823 81.63 278.635C81.8556 278.535 82.0325 278.35 82.1219 278.12C82.2113 277.89 82.2061 277.634 82.1072 277.408C81.9962 277.075 82.4734 276.038 82.6621 275.771C83.0006 275.216 83.2004 275.86 83.6388 276.382Z" fill="#FF7B40"/>
<path fill-rule="evenodd" clip-rule="evenodd" d="M55.2525 260.638C55.2525 260.638 55.8963 257.559 58.3879 256.854C58.3879 256.854 56.096 254.135 55.2359 254.634C54.3758 255.134 52.883 256.798 52.9274 257.819C52.9718 258.841 55.2525 260.638 55.2525 260.638Z" fill="#FF7B40"/>
<path fill-rule="evenodd" clip-rule="evenodd" d="M132.475 75.0523C132.076 73.6983 131.077 70.058 130.639 69.2923C127.387 63.8318 124.274 69.9249 107.426 69.2923C105.351 69.2146 111.488 83.2485 112.26 84.2751C111.383 85.274 111.066 87.3605 111.194 88.3149C111.252 88.9398 111.482 89.5365 111.858 90.0389C112.234 90.5413 112.742 90.9299 113.325 91.1617C114.624 91.6278 116.061 91.2172 117.343 90.6068C120.062 93.2315 124.69 96.2503 128.13 94.2249C130.905 92.5989 132.148 89.9187 133.319 83.5648C137.076 81.556 137.969 74.392 132.475 75.0523ZM112.731 87.4881C112.689 87.1402 112.716 86.7874 112.812 86.4502C112.907 86.113 113.068 85.7981 113.286 85.5237C114.26 86.9835 115.323 88.3809 116.471 89.7078C114.723 90.4292 113.142 89.7799 112.731 87.4881ZM133.33 82.3884C132.964 80.4406 133.33 78.2709 132.814 76.5007C135.644 76.2232 135.011 80.5572 133.33 82.405V82.3884Z" fill="#F47A45"/>
<path fill-rule="evenodd" clip-rule="evenodd" d="M128.403 113.462C127.848 113.712 129.146 117.813 129.912 117.286C135.695 113.34 143.397 110.754 144.484 110.377C145.572 110 142.82 106.715 141.965 107.048C141.111 107.381 130.384 112.541 128.403 113.462Z" fill="#F47A45"/>
<path fill-rule="evenodd" clip-rule="evenodd" d="M129.07 109.223C128.681 109.406 129.625 112.364 130.18 111.997C134.358 109.145 139.93 107.275 140.723 107.003C141.517 106.731 139.508 104.356 138.903 104.606C138.298 104.856 130.501 108.557 129.07 109.223Z" fill="#F47A45"/>
<path fill-rule="evenodd" clip-rule="evenodd" d="M127.366 96.2878C129.401 99.3624 130.744 102.843 131.301 106.487L135.224 104.49C135.224 104.49 132.755 103.596 129.353 94.8894L127.366 96.2878Z" fill="#F47A45"/>
<path fill-rule="evenodd" clip-rule="evenodd" d="M106.229 294.694C105.843 294.317 105.325 294.106 104.786 294.106C104.247 294.106 103.729 294.317 103.343 294.694C102.578 295.454 105.191 296.004 104.37 299.517C103.549 303.029 109.298 304.55 109.292 299.639C109.292 297.752 107.561 295.943 106.229 294.694Z" fill="#F47A45"/>
<path fill-rule="evenodd" clip-rule="evenodd" d="M185.239 55.9948C205.072 62.3486 217.203 73.9798 217.463 73.5303C219.128 63.2476 230.992 61.2832 232.269 56.0891C234.408 56.9239 236.291 58.3054 237.729 60.0956C236.619 62.6649 232.735 64.535 226.797 67.8978C220.443 71.4992 219.15 78.7299 217.264 80.1949C215.66 79.0517 195.378 64.4961 182.243 61.5773C182.664 60.5617 182.237 57.7428 185.239 55.9948Z" fill="#FF7B40"/>
<path fill-rule="evenodd" clip-rule="evenodd" d="M204.499 32.0167C204.499 32.0167 185.754 41.234 184.278 54.4133C189.195 54.7074 208.201 65.2454 216.852 71.0277C219.843 60.584 224.954 63.8137 232.656 52.9705C228.361 46.9164 215.198 37.3329 204.499 32.0167ZM214 42.76C214.71 42.144 215.759 43.1651 215.043 43.7866C213.401 45.1113 211.912 46.6152 210.604 48.2703C210.049 49.025 208.772 48.2981 209.327 47.5378C210.702 45.7762 212.269 44.1736 214 42.76ZM209.638 39.5525C210.315 38.8922 211.364 39.9188 210.681 40.5792C209.233 41.9831 207.635 43.2539 206.436 44.8853C205.881 45.64 204.599 44.9131 205.16 44.1528C206.442 42.427 208.095 41.0952 209.638 39.5692V39.5525ZM199.466 41.3338C201.536 39.4582 203.484 37.4494 205.792 35.8734C206.575 35.3185 207.313 36.5893 206.536 37.1275C204.316 38.6536 202.485 40.5681 200.51 42.3605C199.816 43.0097 198.767 41.9887 199.466 41.3505V41.3338ZM192.291 52.3324C191.736 51.0616 193.895 45.6733 197.285 44.9797C199.394 44.5302 208.212 51.1338 208.212 51.1338C208.212 51.1338 204.277 55.5398 203.689 57.6097L192.291 52.3324ZM207.352 58.9581C210.642 53.9565 214.864 49.6346 219.788 46.2282C219.886 46.1671 219.997 46.1297 220.112 46.119C220.227 46.1083 220.343 46.1246 220.451 46.1666C220.559 46.2086 220.655 46.2752 220.733 46.361C220.81 46.4469 220.867 46.5496 220.897 46.6611L220.942 46.8386C220.977 46.9622 220.978 47.093 220.945 47.2171C220.912 47.3412 220.845 47.454 220.753 47.5434L220.526 47.721C220.37 47.847 220.17 47.9068 219.971 47.8875C215.499 51.0906 211.657 55.0921 208.639 59.6906C208.106 60.4731 206.83 59.7461 207.346 58.9581H207.352ZM224.971 50.368L224.499 50.7509C224.39 50.8425 224.257 50.902 224.116 50.9229C223.772 51.2503 223.4 51.6942 223.2 51.8718C222.645 52.3823 222.052 52.8873 221.486 53.4034C220.476 54.3245 219.471 55.2512 218.528 56.239C216.53 58.3255 214.704 60.5785 213.611 63.2588C213.262 64.1189 211.83 63.7415 212.185 62.8759C213.436 60.0025 215.236 57.4012 217.485 55.218C218.711 53.9694 219.993 52.7708 221.302 51.6054C222.085 50.9118 223.211 49.3858 224.249 49.1582C224.909 48.9918 225.586 49.8852 224.959 50.368H224.971Z" fill="#FF7B40"/>
<path fill-rule="evenodd" clip-rule="evenodd" d="M202.898 73.5527C202.898 73.5527 191.999 67.9147 181.739 68.7693L183.193 63.8472C183.193 63.8472 197.288 67.6928 202.898 73.5527Z" fill="#FF7B40"/>
<path fill-rule="evenodd" clip-rule="evenodd" d="M205.288 105C198.074 103.596 188.085 101.182 175.056 102.081C175.189 94.5731 172.93 80.9941 170.183 74.435C169.795 73.5027 169.035 74.213 169.423 75.1508C172.165 81.7211 174.196 94.7229 173.896 102.237C173.896 102.675 174.079 103.124 174.551 103.108C187.092 102.692 197.602 104.04 204.622 106.193C205.61 106.487 206.292 105.2 205.288 105Z" fill="#FF7B40"/>
<path fill-rule="evenodd" clip-rule="evenodd" d="M131.667 67.8756C131.667 67.8756 134.807 66.8434 134.202 62.3652C134.202 62.3652 135.828 66.294 138.187 65.9112C138.187 65.9112 135.967 66.9766 136.3 72.0153C136.3 72.0042 134.83 66.0998 131.667 67.8756Z" fill="#F47A45"/>
<path fill-rule="evenodd" clip-rule="evenodd" d="M138.975 72.7258C138.975 72.7258 140.806 72.1209 140.457 69.5128C140.457 69.5128 141.406 71.8046 142.776 71.5827C142.776 71.5827 141.472 72.2042 141.666 75.1342C141.677 75.1508 140.823 71.7103 138.975 72.7258Z" fill="#F47A45"/>
<path fill-rule="evenodd" clip-rule="evenodd" d="M105.586 93.9294C105.586 93.9294 107.067 92.7141 105.802 90.4167C105.802 90.4167 107.506 92.1981 108.693 91.4989C108.693 91.4989 107.706 92.5421 108.949 95.1835C108.954 95.189 106.923 92.309 105.586 93.9294Z" fill="#F47A45"/>
<path fill-rule="evenodd" clip-rule="evenodd" d="M115.619 98.0745C115.619 98.0745 117.206 96.6206 115.652 94.129C115.652 94.129 117.666 96.0269 118.981 95.1667C118.981 95.1667 117.938 96.3986 119.486 99.2787C119.47 99.2842 117.023 96.1767 115.619 98.0745Z" fill="#F47A45"/>
<path fill-rule="evenodd" clip-rule="evenodd" d="M176.562 100.749C176.562 100.749 175.818 87.5422 174.387 83.0196C173.832 81.2217 178.271 79.3849 179.264 81.1773C181.584 85.4169 181.984 100.749 181.984 100.749H176.562Z" fill="#F47A45"/>
<path fill-rule="evenodd" clip-rule="evenodd" d="M183.229 100.644C183.229 100.644 183.612 93.5242 182.502 88.763C181.948 86.3491 187.269 85.8885 187.98 86.6432C190.155 88.9628 189.372 100.644 189.372 100.644H183.229Z" fill="#F47A45"/>
<path fill-rule="evenodd" clip-rule="evenodd" d="M191.234 101.138C191.234 101.138 190.54 88.0416 190.706 84.529C190.856 81.488 195.079 81.4603 195.701 82.4536C197.587 85.4945 198.642 102.986 196.638 102.076C194.635 101.165 191.234 101.138 191.234 101.138Z" fill="#F47A45"/>
<path fill-rule="evenodd" clip-rule="evenodd" d="M199.233 102.597C199.233 102.597 198.984 86.56 199.233 82.2427C199.461 78.5081 203.373 78.3583 203.911 79.5347C205.576 83.2028 206.014 104.645 204.189 103.568C202.363 102.492 199.233 102.597 199.233 102.597Z" fill="#F47A45"/>
<path d="M201.319 75.5338L201.18 75.4727C201.125 75.4278 201.057 75.399 200.986 75.3895C200.515 75.1841 200.032 74.9844 199.555 74.7901C199.077 74.5959 198.694 75.2452 199.161 75.4283L199.76 75.6725L192.546 77.5204C192.489 77.5346 192.436 77.5611 192.391 77.5981L185.809 82.9475L175.266 75.8334C175.18 75.773 175.075 75.7479 174.971 75.7634C174.868 75.7789 174.775 75.8338 174.711 75.9166C174.681 75.9556 174.659 76.0004 174.647 76.0482C174.635 76.0959 174.633 76.1457 174.642 76.1942C174.65 76.2427 174.668 76.289 174.696 76.3301C174.723 76.3711 174.758 76.4061 174.8 76.4327L185.632 83.7188C185.699 83.7626 185.778 83.7858 185.859 83.7854C185.952 83.7859 186.042 83.7546 186.114 83.6967L192.846 78.2196L200.576 76.2385C200.424 76.6836 200.186 77.0946 199.876 77.4482C199.538 77.8034 200.087 78.325 200.431 77.9754C200.929 77.3847 201.297 76.6968 201.513 75.9555C201.537 75.8736 201.53 75.7859 201.495 75.7085C201.459 75.6311 201.397 75.569 201.319 75.5338Z" fill="#FF7B40"/>
<path d="M186.504 75.7224C185.878 75.57 185.266 75.3678 184.673 75.1175C185.294 73.5582 184.845 71.6548 182.753 71.8379H182.68C182.403 71.394 181.609 71.6382 181.804 72.1875C181.998 72.7369 182.125 73.142 182.27 73.6248V73.7524C182.268 73.8141 182.278 73.8756 182.301 73.9329C182.324 73.9902 182.359 74.0422 182.403 74.0854C182.647 74.9288 182.869 75.7834 183.102 76.6324C183.424 77.82 183.657 79.2017 184.267 80.2838C184.332 80.3949 184.438 80.4758 184.563 80.5085C184.687 80.5413 184.819 80.5234 184.931 80.4586C185.042 80.3939 185.123 80.2876 185.155 80.1632C185.188 80.0389 185.17 79.9066 185.105 79.7955C184.55 78.7966 184.34 77.4759 184.034 76.3772L183.912 75.9222H183.962C184.778 75.9665 185.461 76.5214 186.254 76.6324C186.859 76.7379 187.12 75.8056 186.504 75.7224ZM183.657 75.0121C183.52 74.5089 183.378 74.0058 183.23 73.5027V72.8201C184.217 73.0088 184.118 74.1464 183.657 75.0121Z" fill="#FF7B40"/>
<path d="M189.069 76.9266C188.864 76.5548 188.686 76.1719 188.514 75.7891L188.359 75.4505C189.091 74.9788 189.729 74.5238 189.763 73.5305C189.764 73.4461 189.742 73.363 189.7 73.2898C189.658 73.2166 189.597 73.156 189.524 73.1143C189.097 72.8931 188.612 72.8116 188.137 72.8813C187.884 72.935 187.643 73.0346 187.426 73.1754C187.348 73.1104 187.251 73.0716 187.15 73.0644C187.048 73.0572 186.947 73.0819 186.86 73.1351C186.773 73.1883 186.705 73.2673 186.665 73.3611C186.626 73.4549 186.616 73.5588 186.638 73.6581C187.007 74.8736 187.498 76.0486 188.103 77.1652C188.27 77.4927 188.486 78.0476 188.886 78.1585C189.48 78.325 189.563 77.6758 189.507 77.2707C189.503 77.2184 189.489 77.1675 189.464 77.1213C189.439 77.075 189.405 77.0344 189.364 77.002C189.323 76.9696 189.275 76.9462 189.224 76.9332C189.174 76.9203 189.121 76.918 189.069 76.9266ZM188.725 73.8468C188.56 74.161 188.297 74.4125 187.976 74.5627C187.909 74.4017 187.848 74.2408 187.787 74.0799C188.058 73.8888 188.389 73.8021 188.719 73.8357L188.725 73.8468Z" fill="#FF7B40"/>
<path fill-rule="evenodd" clip-rule="evenodd" d="M77.7673 259.734C78.6662 255.772 77.8172 250.478 75.4422 248.236C75.026 251.061 75.2035 250.977 74.4877 251.255C74.41 248.303 74.3157 246.771 72.0238 244.624C71.7186 244.341 72.0738 245.312 71.6909 245.806C71.0805 243.869 67.1516 238.669 66.2971 236.816C66.0141 236.2 66.458 240.251 66.5801 241.055C63.7111 236.977 61.8965 234.635 55.2874 232.149C55.2208 241.816 58.173 244.579 61.6135 247.936C60.6036 247.837 59.3938 246.671 59.5215 247.071C60.4981 250.373 63.5669 253.502 66.5745 254.84C66.175 254.945 63.639 254.695 64.0052 254.995C64.0052 254.995 67.64 260.1 75.2313 261.654C75.2313 261.654 66.5357 249.884 64.7766 244.735C69.1161 249.829 83.3664 270.261 84.5318 271.06C85.6638 267.764 78.3943 261.698 77.7673 259.734Z" fill="#F47A45"/>
<path fill-rule="evenodd" clip-rule="evenodd" d="M30.1438 131.936C29.3927 131.927 28.6645 132.194 28.0961 132.685C26.9863 132.424 25.8765 132.185 24.7666 131.952C25.0052 130.598 25.255 129.25 25.5269 127.902C26.1039 127.665 26.5982 127.264 26.9478 126.747C27.2973 126.231 27.4864 125.623 27.4913 124.999C27.4994 124.586 27.4259 124.176 27.2752 123.791C27.1244 123.407 26.8993 123.056 26.6127 122.758C26.3262 122.461 25.9837 122.223 25.605 122.058C25.2264 121.893 24.8189 121.805 24.4059 121.797C23.5724 121.794 22.7718 122.122 22.1798 122.709C21.5878 123.296 21.2528 124.094 21.2484 124.927C21.241 125.474 21.3751 126.013 21.6376 126.492C21.9002 126.972 22.2822 127.375 22.7467 127.663C22.5099 128.884 22.2824 130.105 22.0642 131.325C18.0465 130.654 14.0622 129.883 10.2776 128.345C10.233 127.556 9.89127 126.812 9.3211 126.263C8.75093 125.715 7.99446 125.402 7.20338 125.388C6.79045 125.386 6.38114 125.465 5.99887 125.621C5.61661 125.777 5.26889 126.007 4.97561 126.298C4.68234 126.589 4.44927 126.934 4.28973 127.315C4.1302 127.696 4.04733 128.105 4.04588 128.517C4.03779 128.93 4.11122 129.341 4.26198 129.725C4.41273 130.11 4.63785 130.461 4.92443 130.758C5.21102 131.056 5.55345 131.294 5.93212 131.459C6.3108 131.624 6.71828 131.712 7.13124 131.719C7.90257 131.727 8.64896 131.446 9.22329 130.931L9.30653 130.976C11.106 131.719 12.9615 132.318 14.8557 132.768C14.669 132.99 14.5513 133.262 14.5172 133.551C13.8402 138.839 14.0622 144.244 13.2021 149.51C12.1195 149.084 10.988 148.795 9.8337 148.65C9.92804 145.232 10.261 141.836 10.6328 138.439C10.8326 136.636 8.05241 136.619 7.85818 138.406C7.50303 141.664 7.17563 144.921 7.0702 148.195L6.13238 148.045C5.95811 147.386 5.57313 146.802 5.03612 146.383C4.49911 145.963 3.83955 145.73 3.158 145.72C2.74507 145.718 2.33577 145.797 1.9535 145.953C1.57124 146.109 1.22352 146.339 0.93024 146.63C0.636966 146.921 0.403889 147.266 0.244354 147.647C0.0848184 148.028 0.00195366 148.437 0.000500343 148.85C-0.0143578 149.683 0.302223 150.489 0.880714 151.089C1.45921 151.689 2.25231 152.036 3.08586 152.052C3.57352 152.056 4.05528 151.945 4.49205 151.728C4.92882 151.511 5.30829 151.194 5.59966 150.803L8.27437 151.23C9.62838 151.452 11.3819 151.569 12.5528 152.34C12.7406 152.485 12.9679 152.57 13.2047 152.583C13.4416 152.595 13.6767 152.536 13.8791 152.412C14.0495 152.503 14.2392 152.552 14.4322 152.555C14.6253 152.557 14.8163 152.514 14.9893 152.429C15.1623 152.343 15.3125 152.217 15.4272 152.062C15.542 151.907 15.6181 151.726 15.6493 151.536C16.2484 148.084 16.6007 144.594 16.7036 141.092C18.1464 141.392 19.5892 141.686 21.0265 142.002C21.0265 142.002 21.0265 142.046 21.0265 142.069C20.688 145.493 20.4715 148.933 20.1164 152.351C19.456 152.536 18.8736 152.93 18.4572 153.475C18.0407 154.019 17.8128 154.685 17.8079 155.37C17.7931 156.204 18.1096 157.009 18.6881 157.609C19.2666 158.21 20.0597 158.556 20.8933 158.572C21.7268 158.575 22.5274 158.247 23.1194 157.66C23.7114 157.073 24.0464 156.276 24.0508 155.442C24.0573 154.955 23.9516 154.473 23.7418 154.033C23.532 153.593 23.2238 153.208 22.8411 152.906C23.2184 149.488 23.4293 146.053 23.7567 142.635C24.811 142.895 25.8543 143.19 26.892 143.5C28.6122 144.055 29.3725 141.319 27.6633 140.792C24.1285 139.682 20.4882 139.028 16.8757 138.262C16.9755 136.697 17.1032 135.132 17.3029 133.578C17.3108 133.49 17.3108 133.401 17.3029 133.312C18.263 133.506 19.223 133.684 20.1885 133.867C20.257 133.895 20.3275 133.917 20.3994 133.934C22.6191 134.4 24.8388 134.832 27.003 135.337C27.0503 136.125 27.3932 136.867 27.9631 137.413C28.533 137.959 29.2879 138.27 30.0772 138.284C30.9107 138.287 31.7114 137.959 32.3034 137.372C32.8954 136.786 33.2303 135.988 33.2347 135.154C33.2443 134.74 33.1718 134.327 33.0214 133.941C32.8711 133.554 32.6458 133.201 32.3585 132.902C32.0713 132.603 31.7278 132.364 31.3477 132.198C30.9676 132.032 30.5584 131.943 30.1438 131.936Z" fill="#F47A45"/>
<path d="M457.607 84.6244C403.995 84.6194 361.999 74.5066 362 61.6015C362.001 53.8644 376.882 46.9625 402.828 42.6661C402.921 42.6502 403.016 42.6535 403.108 42.6759C403.199 42.6983 403.285 42.7392 403.362 42.7965C403.438 42.8537 403.503 42.9261 403.552 43.0094C403.601 43.0927 403.634 43.1853 403.649 43.282C403.664 43.3786 403.66 43.4773 403.638 43.5724C403.616 43.6676 403.576 43.7572 403.521 43.8363C403.465 43.9153 403.395 43.9822 403.315 44.033C403.235 44.0838 403.145 44.1176 403.052 44.1324C378.611 48.1799 363.428 54.8737 363.427 61.6016C363.426 73.2717 406.555 83.1348 457.608 83.1396C508.66 83.1444 551.791 73.2894 551.792 61.6193C551.792 54.8631 536.513 48.1502 511.916 44.1006C511.823 44.0856 511.734 44.0517 511.654 44.0009C511.574 43.95 511.504 43.8832 511.449 43.8043C511.393 43.7254 511.354 43.6358 511.332 43.5409C511.31 43.4459 511.306 43.3474 511.321 43.2509C511.335 43.1544 511.368 43.0619 511.417 42.9786C511.466 42.8954 511.531 42.823 511.607 42.7657C511.683 42.7084 511.769 42.6673 511.86 42.6447C511.952 42.6221 512.046 42.6184 512.139 42.634C538.246 46.9323 553.219 53.8523 553.219 61.6194C553.218 74.5245 511.22 84.6294 457.607 84.6244Z" fill="#F7F5F5"/>
<path d="M410.174 88.9544C415.024 97.5976 421.971 104.764 430.319 109.737C438.667 114.709 448.123 117.314 457.742 117.289C467.361 117.265 476.806 114.613 485.13 109.598C493.455 104.583 500.368 97.3818 505.177 88.7142C473.538 90.6055 441.822 90.6857 410.174 88.9544Z" fill="#FF7B40"/>
<path d="M510.435 72.8425C512.774 64.3116 513.173 55.3314 511.599 46.6126C510.026 37.8938 506.524 29.6756 501.37 22.6087C496.216 15.5417 489.552 9.81977 481.906 5.89585C474.259 1.97192 465.839 -0.0463351 457.313 0.000807251C448.788 0.0479496 440.389 2.1592 432.783 6.16747C425.177 10.1757 418.572 15.971 413.49 23.0946C408.409 30.2181 404.991 38.4745 403.507 47.2103C402.022 55.946 402.513 64.9213 404.939 73.4258C439.98 77.9792 475.442 77.7831 510.435 72.8425Z" fill="#FF7B40"/>
<path d="M470.457 31.9149C474.004 31.9149 476.879 28.9235 476.879 25.2335C476.879 21.5434 474.004 18.552 470.457 18.552C466.91 18.552 464.035 21.5434 464.035 25.2335C464.035 28.9235 466.91 31.9149 470.457 31.9149Z" fill="white"/>
<path d="M436.918 63.8356C442.829 63.8356 447.621 58.85 447.621 52.6999C447.621 46.5497 442.829 41.5641 436.918 41.5641C431.007 41.5641 426.216 46.5497 426.216 52.6999C426.216 58.85 431.007 63.8356 436.918 63.8356Z" fill="white"/>
<path d="M457.612 112.093C461.159 112.093 464.034 109.101 464.034 105.411C464.034 101.721 461.159 98.7296 457.612 98.7296C454.066 98.7296 451.191 101.721 451.191 105.411C451.191 109.101 454.066 112.093 457.612 112.093Z" fill="white"/>
<path d="M460.946 347.788C463.744 347.788 466.012 345.429 466.012 342.518C466.012 339.607 463.744 337.247 460.946 337.247C458.149 337.247 455.881 339.607 455.881 342.518C455.881 345.429 458.149 347.788 460.946 347.788Z" fill="#FF7B40"/>
<path d="M520.04 293.697H518.723V292.327C518.723 291.859 518.545 291.411 518.227 291.081C517.91 290.75 517.479 290.565 517.03 290.565C516.581 290.565 516.15 290.75 515.833 291.081C515.515 291.411 515.337 291.859 515.337 292.327V293.697H514.02C513.57 293.697 513.14 293.883 512.822 294.213C512.505 294.544 512.326 294.992 512.326 295.459C512.326 295.926 512.505 296.374 512.822 296.705C513.14 297.035 513.57 297.221 514.02 297.221H515.337V298.591C515.337 299.058 515.515 299.507 515.833 299.837C516.15 300.167 516.581 300.353 517.03 300.353C517.479 300.353 517.91 300.167 518.227 299.837C518.545 299.507 518.723 299.058 518.723 298.591V297.221H520.04C520.489 297.221 520.92 297.035 521.238 296.705C521.555 296.374 521.734 295.926 521.734 295.459C521.734 294.992 521.555 294.544 521.238 294.213C520.92 293.883 520.489 293.697 520.04 293.697Z" fill="#FF6584"/>
<path d="M313.714 193.132H312.397V191.762C312.397 191.295 312.219 190.846 311.901 190.516C311.583 190.186 311.153 190 310.704 190C310.255 190 309.824 190.186 309.506 190.516C309.189 190.846 309.01 191.295 309.01 191.762V193.132H307.693C307.244 193.132 306.814 193.318 306.496 193.648C306.178 193.979 306 194.427 306 194.894C306 195.361 306.178 195.81 306.496 196.14C306.814 196.47 307.244 196.656 307.693 196.656H309.01V198.026C309.01 198.494 309.189 198.942 309.506 199.272C309.824 199.603 310.255 199.788 310.704 199.788C311.153 199.788 311.583 199.603 311.901 199.272C312.219 198.942 312.397 198.494 312.397 198.026V196.656H313.714C314.163 196.656 314.594 196.47 314.911 196.14C315.229 195.81 315.407 195.361 315.407 194.894C315.407 194.427 315.229 193.979 314.911 193.648C314.594 193.318 314.163 193.132 313.714 193.132Z" fill="#FF7B40"/>
<path d="M185.714 274.12H184.397V272.75C184.397 272.283 184.219 271.835 183.901 271.504C183.584 271.174 183.153 270.988 182.704 270.988C182.255 270.988 181.824 271.174 181.506 271.504C181.189 271.835 181.01 272.283 181.01 272.75V274.12H179.693C179.244 274.12 178.814 274.306 178.496 274.636C178.178 274.967 178 275.415 178 275.882C178 276.35 178.178 276.798 178.496 277.128C178.814 277.459 179.244 277.644 179.693 277.644H181.01V279.015C181.01 279.482 181.189 279.93 181.506 280.26C181.824 280.591 182.255 280.776 182.704 280.776C183.153 280.776 183.584 280.591 183.901 280.26C184.219 279.93 184.397 279.482 184.397 279.015V277.644H185.714C186.163 277.644 186.594 277.459 186.911 277.128C187.229 276.798 187.407 276.35 187.407 275.882C187.407 275.415 187.229 274.967 186.911 274.636C186.594 274.306 186.163 274.12 185.714 274.12Z" fill="#FF7B40"/>
<path d="M190.056 149.132H188.739V147.762C188.739 147.295 188.56 146.846 188.243 146.516C187.925 146.186 187.495 146 187.045 146C186.596 146 186.166 146.186 185.848 146.516C185.531 146.846 185.352 147.295 185.352 147.762V149.132H184.035C183.586 149.132 183.155 149.318 182.838 149.648C182.52 149.979 182.342 150.427 182.342 150.894C182.342 151.361 182.52 151.81 182.838 152.14C183.155 152.47 183.586 152.656 184.035 152.656H185.352V154.026C185.352 154.494 185.531 154.942 185.848 155.272C186.166 155.603 186.596 155.788 187.045 155.788C187.495 155.788 187.925 155.603 188.243 155.272C188.56 154.942 188.739 154.494 188.739 154.026V152.656H190.056C190.505 152.656 190.936 152.47 191.253 152.14C191.571 151.81 191.749 151.361 191.749 150.894C191.749 150.427 191.571 149.979 191.253 149.648C190.936 149.318 190.505 149.132 190.056 149.132Z" fill="#FF7B40"/>
<defs>
<filter id="filter0_d_2114_1104" x="92" y="5" width="486" height="535" filterUnits="userSpaceOnUse" color-interpolation-filters="sRGB">
<feFlood flood-opacity="0" result="BackgroundImageFix"/>
<feColorMatrix in="SourceAlpha" type="matrix" values="0 0 0 0 0 0 0 0 0 0 0 0 0 0 0 0 0 0 127 0" result="hardAlpha"/>
<feOffset dy="15"/>
<feGaussianBlur stdDeviation="12.5"/>
<feComposite in2="hardAlpha" operator="out"/>
<feColorMatrix type="matrix" values="0 0 0 0 0.145098 0 0 0 0 0.133333 0 0 0 0 0.235294 0 0 0 0.2 0"/>
<feBlend mode="normal" in2="BackgroundImageFix" result="effect1_dropShadow_2114_1104"/>
<feBlend mode="normal" in="SourceGraphic" in2="effect1_dropShadow_2114_1104" result="shape"/>
</filter>
</defs>
</svg>
